<?xml version="1.0" encoding="UTF-8"?>
<svg id="Layer_2" data-name="Layer 2" xmlns="http://www.w3.org/2000/svg" viewBox="0 0 704.81 247.95">
  <defs>
    <style>
      .cls-1 {
        fill: #000;
      }

      .cls-1, .cls-2, .cls-3 {
        stroke-width: 0px;
      }

      .cls-2 {
        fill: #90c;
      }

      .cls-3 {
        fill: #fff;
      }
    </style>
  </defs>
  <g id="Layer_1-2" data-name="Layer 1">
    <g>
      <g>
        <path class="cls-1" d="M498.83,151.65c-.24.1-.5.18-.74.28,2.58.15,5.08.69,7.43,1.62,2.81,1.12,5.33,2.72,7.48,4.77,2.13,2.03,3.85,4.42,5.11,7.11,1.35,2.89,2.04,6.02,2.04,9.31v43.37c0,4-.78,7.85-2.32,11.45-1.51,3.55-3.62,6.69-6.29,9.36-2.64,2.65-5.76,4.77-9.26,6.32-3.62,1.6-7.5,2.4-11.53,2.4h-.95l-232.31.31h-.09c-4.04,0-7.93-.81-11.56-2.41-3.52-1.55-6.65-3.68-9.29-6.32-1.14-1.14-2.16-2.36-3.09-3.66-.88,1.19-1.83,2.32-2.88,3.36-2.64,2.65-5.76,4.77-9.26,6.32-3.63,1.6-7.51,2.4-11.54,2.4h-7.7c-3.17,0-6.22-.59-9.06-1.78-2.73-1.13-5.18-2.69-7.28-4.63-2.2-2.03-3.95-4.48-5.21-7.26-1.28-2.84-1.93-5.94-1.93-9.2v-13.61h.02l-.12-29.62c0-4.04.78-7.9,2.31-11.51,1.51-3.55,3.62-6.72,6.29-9.39,2.65-2.66,5.77-4.79,9.27-6.34.14-.06.29-.12.43-.18h-108.87l-.02-15.89c-1.48,2.35-3.24,4.51-5.27,6.43-3.15,3-6.85,5.35-11,7-4.14,1.64-8.58,2.46-13.2,2.46h-13.47c-6.14,0-12.05-1.23-17.57-3.65-5.4-2.38-10.19-5.64-14.24-9.69s-7.32-8.89-9.63-14.33c-2.34-5.48-3.53-11.36-3.53-17.47V.02h92.95v.08l85.55.13L226.66.02c6.14,0,12.06,1.23,17.57,3.66,5.4,2.38,10.19,5.64,14.24,9.69,3.08,3.09,5.68,6.59,7.76,10.46.34-1.05.73-2.09,1.17-3.11,1.8-4.15,4.32-7.82,7.48-10.9,3.13-3.05,6.82-5.47,10.95-7.19,4.18-1.73,8.66-2.61,13.33-2.61l48.16.21v13.46c1.16-1.58,2.44-3.05,3.86-4.4,3.15-2.99,6.86-5.34,11.01-6.98,3.86-1.53,7.99-2.31,12.28-2.31.34,0,.69.01,1.04.02h13.93c5.97.29,11.71,1.6,17.07,3.88,5.42,2.32,10.24,5.56,14.32,9.63,2.35,2.35,4.41,4.93,6.19,7.72V.23l48.16-.21c6.14,0,12.05,1.23,17.57,3.66,5.39,2.38,10.18,5.64,14.24,9.69,4.07,4.09,7.31,8.91,9.63,14.35,2.34,5.5,3.53,11.38,3.53,17.49v75.43c0,4.76-.95,9.27-2.8,13.4-1.82,4.03-4.34,7.59-7.51,10.61-3.16,3-6.86,5.36-11.01,7Z"/>
        <g>
          <g>
            <path class="cls-3" d="M226.09,164.58c-1.35-1.29-2.93-2.29-4.72-3-1.79-.71-3.7-1.07-5.73-1.07h-7.71c-2.84,0-5.53.56-8.07,1.68-2.54,1.12-4.75,2.63-6.64,4.53-1.89,1.9-3.38,4.13-4.46,6.67-1.08,2.55-1.62,5.25-1.62,8.1l.1,25.58h27.66l-.1,7.73c.14,1.56.04,2.98-.3,4.27-.34,1.29-1.08,2.48-2.22,3.56-.61.61-1.23,1.07-1.87,1.37-.64.3-1.31.51-2.02.61-.71.1-1.5.14-2.37.1-.87-.03-1.91-.05-3.13-.05l.1-.1v-4.78h-15.76v4.98c0,2.03.39,3.92,1.17,5.64.78,1.73,1.85,3.22,3.2,4.47,1.36,1.26,2.93,2.25,4.73,3,1.8.75,3.71,1.12,5.75,1.12h7.7c2.84,0,5.52-.56,8.05-1.67,2.53-1.12,4.75-2.62,6.64-4.52,1.89-1.89,3.38-4.11,4.46-6.65,1.08-2.54,1.62-5.23,1.62-8.07v-25.57h-27.56v-7.75c-.07-1.58.05-3.03.35-4.33.3-1.3,1.02-2.49,2.17-3.58,1.28-1.22,2.79-1.88,4.54-1.98s3.33-.08,4.74.05l.1,4.88h15.66v-5.08c0-2.03-.41-3.92-1.22-5.64-.81-1.73-1.89-3.24-3.25-4.52Z"/>
            <path class="cls-3" d="M245.65,161.63c-1.8.75-3.37,1.78-4.73,3.1-1.36,1.32-2.42,2.88-3.2,4.68-.78,1.8-1.17,3.71-1.17,5.75v43.22c0,2.85.54,5.54,1.63,8.08,1.08,2.54,2.58,4.76,4.47,6.66,1.9,1.9,4.12,3.41,6.66,4.52s5.24,1.68,8.08,1.68l16.68-.3v-14.54h-15.15c-1.42,0-2.78-.6-4.07-1.79-1.15-1.06-1.87-2.22-2.14-3.49-.27-1.26-.41-2.66-.41-4.19v-5.28h15.76v-14.54h-15.76v-20.13h21.76v-14.44l-22.68-.1c-2.03,0-3.95.37-5.75,1.12Z"/>
            <path class="cls-3" d="M289.38,161.63c-1.8.75-3.37,1.78-4.73,3.1-1.36,1.32-2.42,2.88-3.2,4.68-.78,1.8-1.17,3.71-1.17,5.75v43.22c0,2.85.54,5.54,1.63,8.08,1.08,2.54,2.58,4.76,4.47,6.66,1.9,1.9,4.12,3.41,6.66,4.52,2.54,1.12,5.24,1.68,8.08,1.68l16.68-.3v-14.54h-15.15c-1.42,0-2.78-.6-4.07-1.79-1.15-1.06-1.87-2.22-2.14-3.49-.27-1.26-.41-2.66-.41-4.19v-5.28h15.76v-14.54h-15.76v-20.13h21.76v-14.44l-22.68-.1c-2.03,0-3.95.37-5.75,1.12Z"/>
            <polygon class="cls-3" points="354.2 160.51 340.78 190 340.78 160.51 324.31 160.51 324.31 239.01 340.78 239.01 340.78 210.64 354.2 239.01 373.53 239.01 355.02 199.51 373.53 160.51 354.2 160.51"/>
            <path class="cls-3" d="M385.57,161.63c-1.8.75-3.37,1.78-4.73,3.1-1.36,1.32-2.42,2.88-3.2,4.68-.78,1.8-1.17,3.71-1.17,5.75v43.22c0,2.85.54,5.54,1.63,8.08,1.08,2.54,2.58,4.76,4.47,6.66,1.9,1.9,4.12,3.41,6.66,4.52,2.54,1.12,5.24,1.68,8.08,1.68l16.68-.3v-14.54h-15.15c-1.42,0-2.78-.6-4.07-1.79-1.15-1.06-1.87-2.22-2.14-3.49-.27-1.26-.41-2.66-.41-4.19v-5.28h15.76v-14.54h-15.76v-20.13h21.76v-14.44l-22.68-.1c-2.03,0-3.95.37-5.75,1.12Z"/>
            <path class="cls-3" d="M461.03,193.76c1.66-2.98,2.49-6.3,2.49-9.97v-9.05c0-2.03-.39-3.92-1.17-5.64-.78-1.73-1.85-3.24-3.2-4.52-1.36-1.29-2.93-2.29-4.73-3-1.8-.71-3.71-1.07-5.75-1.07h-28.57v78.5h15.76v-34.27h2.75l8.85,34.27h16.88l-9.97-37.93c2.78-1.9,5-4.34,6.66-7.32ZM447.86,180.64c0,1.56-.14,2.98-.41,4.27-.27,1.29-.98,2.48-2.14,3.56-1.29,1.22-2.81,1.87-4.58,1.93-1.76.07-3.39.03-4.88-.1v-15.25h12v5.59Z"/>
            <path class="cls-3" d="M486.48,176.88c1.28-1.22,2.79-1.88,4.54-1.98,1.75-.1,3.33-.08,4.74.05l.1,4.88h15.66v-5.08c0-2.03-.41-3.92-1.22-5.64-.81-1.73-1.89-3.24-3.25-4.52-1.35-1.29-2.93-2.29-4.72-3-1.79-.71-3.7-1.07-5.73-1.07h-7.71c-2.84,0-5.53.56-8.07,1.68-2.54,1.12-4.75,2.63-6.64,4.53-1.89,1.9-3.38,4.13-4.46,6.67-1.08,2.55-1.62,5.25-1.62,8.1l.1,25.58h27.66l-.1,7.73c.13,1.56.03,2.98-.3,4.27-.34,1.29-1.08,2.48-2.22,3.56-.61.61-1.23,1.07-1.87,1.37-.64.3-1.31.51-2.02.61-.71.1-1.5.14-2.37.1-.87-.03-1.91-.05-3.13-.05l.1-.1v-4.78h-15.76v4.98c0,2.03.39,3.92,1.17,5.64.78,1.73,1.85,3.22,3.2,4.47,1.36,1.26,2.93,2.25,4.73,3,1.8.75,3.71,1.12,5.75,1.12h7.7c2.84,0,5.52-.56,8.05-1.67,2.53-1.12,4.75-2.62,6.64-4.52s3.38-4.11,4.46-6.65,1.62-5.23,1.62-8.07v-25.57h-27.56v-7.75c-.07-1.58.05-3.03.35-4.33.3-1.3,1.02-2.49,2.17-3.58Z"/>
          </g>
          <g>
            <path class="cls-2" d="M56.85,120.32c-2.48.24-5.26.27-8.33.09-3.07-.18-5.73-1.33-7.98-3.46-2.01-1.89-3.25-3.96-3.72-6.2-.47-2.24-.71-4.72-.71-7.44V8.65H8.63v100.33c0,4.96.94,9.66,2.84,14.09,1.89,4.43,4.49,8.3,7.8,11.61,3.31,3.31,7.18,5.94,11.61,7.89s9.13,2.92,14.09,2.92h13.47c3.55,0,6.88-.62,10.02-1.86,3.13-1.24,5.88-2.98,8.24-5.23,2.36-2.24,4.22-4.87,5.58-7.89,1.36-3.01,2.04-6.29,2.04-9.84V8.65h-27.48v111.67Z"/>
            <polygon class="cls-2" points="146.54 54.38 125.27 9.18 96.38 9.18 96.55 145.49 125.27 145.49 125.27 69.8 146.54 116.78 146.54 145.49 175.26 145.49 175.26 9.18 146.54 9.18 146.54 54.38"/>
            <path class="cls-2" d="M252.36,19.48c-3.31-3.31-7.18-5.94-11.61-7.9-4.43-1.95-9.13-2.93-14.09-2.93l-39.53.18v136.67h49.99c3.55,0,6.88-.62,10.02-1.86,3.13-1.24,5.88-2.99,8.24-5.23,2.36-2.25,4.22-4.88,5.58-7.9,1.36-3.02,2.04-6.3,2.04-9.85V45.21c0-4.97-.95-9.67-2.84-14.11-1.89-4.44-4.49-8.31-7.8-11.63ZM235.52,120.15h-20.92V33.82c2.6-.24,5.43-.27,8.51-.09,3.07.18,5.73,1.33,7.98,3.46,2.01,1.89,3.25,3.96,3.72,6.2.47,2.25.71,4.73.71,7.45v69.31Z"/>
            <path class="cls-2" d="M289.14,10.6c-3.13,1.3-5.88,3.1-8.24,5.41-2.37,2.3-4.23,5.02-5.58,8.15-1.36,3.13-2.04,6.47-2.04,10.02v75.34c0,4.96.94,9.66,2.84,14.09,1.89,4.43,4.49,8.3,7.8,11.61,3.31,3.31,7.18,5.94,11.61,7.89s9.13,2.92,14.09,2.92l29.07-.53v-25.35h-26.41c-2.48,0-4.85-1.04-7.09-3.13-2.01-1.85-3.25-3.88-3.72-6.08-.47-2.2-.71-4.63-.71-7.3v-9.2h27.48v-25.35h-27.48v-35.1h37.93V8.82l-39.53-.17c-3.55,0-6.89.65-10.02,1.95Z"/>
            <path class="cls-2" d="M414.73,19.64c-3.31-3.31-7.18-5.91-11.61-7.8-4.43-1.89-9.13-2.95-14.09-3.19h-13.65c-3.55-.12-6.89.44-10.02,1.68-3.13,1.24-5.88,2.98-8.24,5.22-2.36,2.24-4.23,4.9-5.58,7.97-1.36,3.07-2.04,6.37-2.04,9.91v112.06h27.48v-59.74h20.92v59.74h27.48V45.16c0-4.96-.95-9.63-2.84-14-1.89-4.37-4.49-8.21-7.8-11.52ZM397.89,60.41h-20.92v-26.06h4.08c1.53,0,3.01.09,4.43.27,1.42.18,2.84.5,4.25.97,1.42.47,2.66,1.24,3.72,2.3,2.01,1.89,3.25,3.99,3.72,6.29.47,2.3.71,4.82.71,7.53v8.69Z"/>
            <path class="cls-2" d="M508.68,31.1c-1.89-4.44-4.49-8.31-7.8-11.63-3.31-3.31-7.18-5.94-11.61-7.9-4.43-1.95-9.13-2.93-14.09-2.93l-39.53.18v136.67h49.99c3.55,0,6.88-.62,10.02-1.86,3.13-1.24,5.88-2.99,8.24-5.23,2.36-2.25,4.22-4.88,5.58-7.9,1.36-3.02,2.04-6.3,2.04-9.85V45.21c0-4.97-.95-9.67-2.84-14.11ZM484.04,120.15h-20.92V33.82c2.6-.24,5.43-.27,8.51-.09,3.07.18,5.73,1.33,7.98,3.46,2.01,1.89,3.25,3.96,3.72,6.2.47,2.25.71,4.73.71,7.45v69.31Z"/>
          </g>
        </g>
      </g>
      <g>
        <path class="cls-1" d="M632.49,247.78c-3.87,0-7.35-1.7-9.74-4.38-2.39,2.69-5.87,4.38-9.74,4.38h-.55c-3.87,0-7.35-1.7-9.74-4.39-2.39,2.69-5.87,4.39-9.74,4.39h-.55c-7.13,0-12.98-5.87-13.02-13.08-.01-1.94-.73-3.8-2.02-5.26-1.3-1.46-3.1-2.4-5.07-2.63-1.67-.2-3.41-.45-5.17-.75-9.99-1.71-17.35-10.59-17.13-20.64,0,0,0-.24,0-.3.06-6.38-2.41-12.42-6.96-17.03-4.56-4.61-10.59-7.15-16.97-7.15-1.77,0-3.53.19-5.25.58-2.26.5-4.57.76-6.87.76-5.79,0-11.48-1.59-16.45-4.6-5.06-3.06-9.13-7.45-11.79-12.7-8.08-15.97-12.18-33.2-12.18-51.22,0-29.48,11.24-57.42,31.66-78.67C525.57,13.89,552.92,1.53,582.21.28c1.63-.07,3.28-.11,4.91-.11,15.31,0,30.19,3.06,44.22,9.08,13.52,5.81,25.67,14.12,36.12,24.69,10.43,10.56,18.63,22.85,24.36,36.51,5.93,14.15,8.94,29.16,8.94,44.6v.1c2.66,6.31,4.06,13.58,4.06,21.16s-1.4,14.85-4.06,21.16v18.79c0,8.64-2.06,17.13-5.97,24.54-2.91,5.53-6.84,16.14-9.06,35.29-.77,6.59-6.34,11.55-12.94,11.55h-.8c-3.77,0-7.08-1.56-9.41-4.15-2.38,2.55-5.77,4.15-9.52,4.15h-.53c-3.84,0-7.3-1.67-9.68-4.32-2.39,2.73-5.9,4.45-9.8,4.45h-.55Z"/>
        <g>
          <g>
            <path class="cls-3" d="M676.83,104.37c6.39,0,12.06,5,15.63,12.75v-2.08c0-60.16-49.8-109.07-109.89-106.49-56.03,2.4-100.71,48.58-100.71,105.19,0,17.08,4.07,33.21,11.29,47.47,4.8,9.48,15.53,14.5,25.9,12.19,2.27-.51,4.63-.77,7.05-.77,17.83,0,32.44,14.79,32.23,32.62,0,.11,0,.22,0,.33-.13,6.04,4.28,11.26,10.23,12.28,1.67.29,3.27.51,4.77.7,4.1.49,7.7,2.46,10.27,5.35,2.55,2.87,4.1,6.63,4.12,10.72.02,2.66,2.08,4.84,4.73,4.84h.55c2.61,0,4.73-2.12,4.73-4.73v-10.96c0-2.61,2.12-4.73,4.73-4.73h.55c2.61,0,4.73,2.12,4.73,4.73v10.96c0,2.61,2.12,4.73,4.73,4.73h.54c2.61,0,4.73-2.12,4.73-4.73v-10.96c0-2.61,2.12-4.73,4.73-4.73h.55c2.61,0,4.73,2.12,4.73,4.73v10.96c0,2.61,2.12,4.73,4.73,4.73h.55c2.61,0,4.73-2.12,4.73-4.73v-10.96c0-2.61,2.12-4.73,4.73-4.73h.54c2.61,0,4.73,2.12,4.73,4.73v10.83c0,2.61,2.12,4.73,4.73,4.73h.54c2.61,0,4.73-2.12,4.73-4.73v-10.83c0-1.3.53-2.48,1.38-3.35.82-.82,1.93-1.33,3.17-1.38,2.7-.1,4.91,2.25,4.91,4.95v9.6c0,3.64,2.12,5.75,4.73,5.75h.8c2.41,0,4.42-1.81,4.7-4.22,2.33-20.14,6.58-31.78,9.96-38.2,3.36-6.37,5.01-13.49,5.01-20.68v-20.79c-3.57,7.74-9.24,12.75-15.63,12.75-10.81,0-19.56-14.29-19.56-31.93s8.76-31.93,19.56-31.93ZM601.59,172.6c-21.55,1.07-39.24-16.64-38.15-38.19.94-18.46,15.94-33.46,34.4-34.4,21.57-1.1,39.3,16.64,38.19,38.21-.95,18.47-15.97,33.46-34.44,34.38ZM659.87,183.73c0,.68-.23,1.33-.62,1.86-.09.12-.19.24-.3.34-.57.57-1.36.94-2.25.94-.32,0-.63-.05-.93-.14-.18-.06-.35-.13-.52-.22l-2.92-1.51c-1.66-.86-3.57-1.05-5.35-.58-.21.05-.41.12-.61.19-.12.04-.23.08-.34.13l-4.57,1.89c-.38.16-.79.24-1.2.24h-2.25c-2.07,0-3.59-1.97-3.05-3.97l6.61-24.64s.02-.06.03-.09c.22-.79.5-1.56.85-2.3.12-.26.25-.51.38-.75.07-.12.14-.25.21-.37.14-.24.29-.48.45-.72.39-.58.83-1.14,1.31-1.66l.33-.35c.05-.05.1-.1.15-.15.44-.43.96-.73,1.52-.91.37-.12.76-.17,1.14-.17.5,0,1,.1,1.47.29h0c.41.18.79.42,1.13.74.05.05.1.09.14.14.15.16.3.32.43.49.14.17.28.34.4.51.26.35.49.72.7,1.1.42.76.74,1.57.95,2.42l6.6,26.48c.03.13.06.26.08.38s.03.26.03.39Z"/>
            <path class="cls-3" d="M690.08,136.28c0,11.94-5.93,21.62-13.25,21.62-1.53,0-2.99-.42-4.36-1.2,5.17-2.94,8.87-10.97,8.87-20.41s-3.7-17.47-8.87-20.41c1.37-.78,2.83-1.2,4.36-1.2,7.33,0,13.25,9.68,13.25,21.62Z"/>
            <path class="cls-2" d="M627.79,136.3c0,15.47-12.58,28.05-28.05,28.05-2.43,0-4.79-.31-7.04-.9,12.07-3.13,21-14.12,21-27.15s-8.94-24.02-21-27.15c2.25-.59,4.61-.9,7.04-.9,15.47,0,28.05,12.58,28.05,28.05Z"/>
          </g>
          <path class="cls-3" d="M653.95,180.25c-1.38-.61-2.86-.96-4.36-1.05l-4.08-16.38.87-3.26c.17-.59.35-1.09.57-1.55.09-.19.17-.35.24-.48l.17-.29c.07-.12.17-.27.28-.44.07-.1.14-.2.21-.31.21.38.36.78.47,1.2l5.62,22.56Z"/>
        </g>
      </g>
    </g>
  </g>
</svg>