<?xml version="1.0" encoding="UTF-8"?>
<svg id="Layer_2" data-name="Layer 2" xmlns="http://www.w3.org/2000/svg" viewBox="0 0 704.81 247.95">
  <defs>
    <style>
      .cls-1 {
        fill: #fff;
        stroke-width: 0px;
      }
    </style>
  </defs>
  <g id="Layer_1-2" data-name="Layer 1">
    <g>
      <path class="cls-1" d="M397.89,51.72c0-2.71-.24-5.23-.71-7.53-.47-2.3-1.71-4.4-3.72-6.29-1.06-1.07-2.3-1.83-3.72-2.31-1.42-.47-2.84-.79-4.26-.97-1.41-.18-2.89-.27-4.43-.27h-4.07v26.06h20.91v-8.69Z"/>
      <path class="cls-1" d="M435.86,190.3c1.49.14,3.12.17,4.88.11,1.76-.07,3.29-.72,4.58-1.94,1.15-1.08,1.86-2.27,2.13-3.55.27-1.29.41-2.72.41-4.28v-5.59h-12v15.25Z"/>
      <path class="cls-1" d="M231.09,37.19c-2.24-2.13-4.9-3.28-7.97-3.46-3.08-.18-5.91-.14-8.51.09v86.33h20.91V50.84c0-2.72-.23-5.2-.7-7.45-.48-2.24-1.72-4.31-3.73-6.2Z"/>
      <path class="cls-1" d="M597.84,100.01c-18.46.94-33.46,15.94-34.39,34.4-1.1,21.55,16.59,39.26,38.14,38.19,18.47-.92,33.49-15.91,34.45-34.38,1.11-21.57-16.62-39.31-38.2-38.21ZM599.74,164.36c-2.43,0-4.79-.32-7.04-.9,12.07-3.13,21-14.12,21-27.16s-8.93-24.02-21-27.15c2.25-.59,4.61-.9,7.04-.9,15.47,0,28.05,12.59,28.05,28.05s-12.58,28.06-28.05,28.06Z"/>
      <path class="cls-1" d="M652.22,154.06c-.21-.37-.44-.74-.7-1.09-.13-.18-.26-.35-.4-.51-.14-.17-.28-.33-.44-.49-.04-.05-.09-.1-.14-.14-.34-.32-.72-.57-1.13-.74h-.01c-.46-.2-.96-.3-1.46-.3-.39,0-.77.06-1.15.18-.55.17-1.07.47-1.51.9-.05.05-.1.1-.15.15l-.33.36c-.47.52-.91,1.08-1.3,1.66-.16.24-.31.48-.45.72-.07.12-.14.24-.21.37-.14.24-.27.49-.39.75-.35.74-.63,1.5-.85,2.29-.01.03-.02.06-.03.09l-6.6,24.64c-.54,2,.97,3.97,3.05,3.97h2.24c.42,0,.82-.08,1.2-.24l4.57-1.89c.12-.05.23-.09.35-.13.2-.07.41-.13.61-.19,1.78-.47,3.69-.27,5.35.59l2.92,1.51c.17.09.34.16.52.21.3.1.62.14.93.14.89,0,1.68-.36,2.25-.94.1-.1.2-.22.29-.34.39-.53.62-1.17.62-1.86,0-.13-.01-.26-.03-.39-.01-.13-.04-.25-.07-.38l-6.6-26.48c-.21-.84-.54-1.66-.95-2.42ZM649.59,179.21l-4.08-16.38.87-3.26c.17-.59.36-1.09.58-1.55.09-.2.17-.35.24-.48l.17-.3c.07-.12.16-.26.28-.44.07-.1.14-.2.22-.3.2.38.36.78.46,1.2l5.63,22.55c-1.38-.6-2.87-.96-4.37-1.04Z"/>
      <path class="cls-1" d="M700.75,115.15v-.1c0-15.44-3.01-30.44-8.94-44.6-5.73-13.66-13.92-25.95-24.35-36.51-10.45-10.57-22.6-18.88-36.12-24.69-14.03-6.02-28.91-9.08-44.22-9.08-1.63,0-3.28.04-4.91.11-24.55,1.05-47.74,9.91-66.59,25.24-2.22-4.55-5.12-8.62-8.63-12.15-4.06-4.05-8.85-7.31-14.24-9.69-5.52-2.43-11.43-3.66-17.57-3.66l-48.16.21v21.02c-1.78-2.79-3.84-5.37-6.19-7.72-4.08-4.07-8.9-7.31-14.32-9.63-5.36-2.28-11.1-3.59-17.07-3.87h-.2s-13.73-.01-13.73-.01c-.35,0-.7-.02-1.04-.02-4.29,0-8.42.78-12.28,2.31-4.15,1.64-7.86,3.99-11.01,6.98-1.42,1.35-2.7,2.82-3.86,4.4V.23l-48.16-.21c-4.67,0-9.15.88-13.33,2.61-4.13,1.72-7.82,4.14-10.95,7.19-3.16,3.08-5.68,6.75-7.48,10.9-.44,1.02-.83,2.06-1.17,3.11-2.08-3.87-4.68-7.37-7.76-10.46-4.05-4.05-8.84-7.31-14.24-9.69C238.72,1.25,232.8.02,226.66.02l-48.16.21L92.95.1V.02H0v108.96c0,6.11,1.19,11.99,3.53,17.47,2.31,5.44,5.56,10.26,9.63,14.33,4.05,4.05,8.84,7.31,14.24,9.69,5.52,2.42,11.43,3.65,17.57,3.65h13.47c4.62,0,9.06-.82,13.2-2.46,4.15-1.65,7.85-4,11-7,2.03-1.92,3.79-4.08,5.27-6.43l.02,15.89h108.87c-.14.06-.29.12-.43.18-3.5,1.55-6.62,3.68-9.27,6.34-2.67,2.67-4.78,5.84-6.29,9.39-1.53,3.61-2.31,7.47-2.31,11.51l.12,29.62h-.02v13.61c0,3.26.65,6.36,1.93,9.2,1.26,2.78,3.01,5.23,5.21,7.26,2.1,1.94,4.55,3.5,7.28,4.63,2.84,1.19,5.89,1.78,9.06,1.78h7.7c4.03,0,7.91-.8,11.54-2.4,3.5-1.55,6.62-3.67,9.26-6.32,1.05-1.04,2-2.17,2.88-3.36.93,1.3,1.95,2.52,3.09,3.66,2.64,2.64,5.77,4.77,9.29,6.32,3.63,1.6,7.52,2.41,11.56,2.41h.09l232.31-.31h.95c4.03,0,7.91-.8,11.53-2.4,3.5-1.55,6.62-3.67,9.26-6.32,2.67-2.67,4.78-5.81,6.29-9.36,1.54-3.6,2.32-7.45,2.32-11.45v-36.45c.24-.05.47-.1.7-.15,1.72-.38,3.48-.57,5.25-.57,6.39,0,12.42,2.54,16.98,7.15,4.55,4.61,7.02,10.65,6.96,17.03,0,.06-.01.3-.01.3-.22,10.05,7.14,18.93,17.13,20.64,1.75.3,3.5.55,5.17.75,1.97.24,3.76,1.17,5.07,2.64,1.29,1.45,2.01,3.32,2.02,5.25.05,7.21,5.89,13.08,13.02,13.08h.55c3.87,0,7.35-1.7,9.74-4.39,2.39,2.69,5.87,4.39,9.74,4.39h.54c3.87,0,7.35-1.7,9.74-4.38,2.39,2.68,5.87,4.38,9.74,4.38h.55c3.9,0,7.4-1.72,9.79-4.45,2.39,2.65,5.85,4.32,9.69,4.32h.53c3.75,0,7.14-1.6,9.52-4.14,2.34,2.58,5.64,4.14,9.41,4.14h.8c6.61,0,12.17-4.96,12.95-11.55,2.21-19.15,6.14-29.76,9.05-35.29,3.91-7.41,5.97-15.9,5.97-24.54v-18.79c2.66-6.31,4.06-13.59,4.06-21.17s-1.4-14.85-4.06-21.16ZM84.32,120.68c0,3.54-.68,6.82-2.03,9.84-1.37,3.01-3.23,5.64-5.59,7.88-2.36,2.25-5.11,3.99-8.24,5.23-3.13,1.24-6.47,1.86-10.02,1.86h-13.47c-4.96,0-9.66-.97-14.09-2.92-4.43-1.95-8.3-4.58-11.61-7.89-3.31-3.31-5.91-7.18-7.8-11.61-1.89-4.43-2.84-9.13-2.84-14.09V8.65h27.48v94.66c0,2.72.23,5.2.71,7.44.47,2.25,1.71,4.32,3.72,6.21,2.24,2.12,4.9,3.28,7.98,3.45,3.07.18,5.85.15,8.33-.09V8.65h27.47v112.03ZM175.26,145.49h-28.72v-28.71l-21.27-46.98v75.69h-28.72l-.17-136.31h28.89l21.27,45.2V9.18h28.72v136.31ZM435.65,8.83l39.53-.18c4.96,0,9.66.98,14.09,2.93,4.43,1.95,8.3,4.58,11.61,7.9,3.31,3.31,5.91,7.19,7.8,11.62.05.13.11.26.16.39-1.23,1.17-2.44,2.37-3.62,3.6-8.83,9.19-15.95,19.65-21.18,30.94v-15.19c0-2.72-.24-5.2-.71-7.45-.47-2.24-1.71-4.31-3.72-6.2-2.25-2.13-4.91-3.28-7.98-3.46-3.07-.18-5.91-.14-8.51.09v86.33h10.62c.48,8.66,1.91,17.13,4.31,25.34h-42.4V8.83ZM349.5,33.43c0-3.54.68-6.84,2.04-9.91,1.36-3.07,3.22-5.72,5.58-7.97,2.37-2.24,5.11-3.98,8.25-5.22,3.13-1.24,6.47-1.8,10.01-1.68h13.65c4.96.24,9.66,1.3,14.09,3.19,4.43,1.89,8.3,4.49,11.61,7.8,3.31,3.31,5.91,7.15,7.8,11.52,1.89,4.38,2.84,9.04,2.84,14.01v100.32h-27.48v-59.73h-20.91v59.73h-27.48V33.43ZM230.55,179.83h-15.66l-.1-4.88c-1.41-.13-2.99-.15-4.74-.05-1.75.1-3.26.76-4.53,1.98-1.15,1.09-1.87,2.28-2.17,3.58s-.42,2.75-.35,4.33v7.75h27.55v25.57c0,2.84-.54,5.53-1.62,8.07-1.08,2.53-2.56,4.75-4.46,6.65-1.89,1.89-4.1,3.4-6.63,4.51-2.53,1.12-5.22,1.67-8.06,1.67h-7.7c-2.03,0-3.95-.37-5.74-1.11-1.8-.75-3.38-1.75-4.73-3-1.36-1.26-2.43-2.75-3.21-4.48-.78-1.73-1.17-3.61-1.17-5.64v-4.99h15.77v4.78l-.11.11c1.22,0,2.26,0,3.13.05.87.03,1.66,0,2.37-.11.7-.1,1.38-.3,2.02-.6.64-.31,1.26-.77,1.86-1.38,1.14-1.08,1.88-2.27,2.22-3.56.34-1.28.44-2.71.3-4.27l.1-7.73h-27.66l-.1-25.58c0-2.85.54-5.55,1.63-8.1,1.08-2.55,2.57-4.77,4.46-6.67,1.89-1.9,4.11-3.42,6.64-4.54,2.54-1.12,5.23-1.68,8.07-1.68h7.71c2.03,0,3.94.36,5.73,1.07,1.8.71,3.37,1.71,4.72,3s2.43,2.79,3.25,4.52c.81,1.73,1.21,3.61,1.21,5.65v5.08ZM187.13,145.49V8.83l39.53-.18c4.97,0,9.66.98,14.09,2.93,4.44,1.95,8.3,4.58,11.61,7.9,3.31,3.31,5.91,7.19,7.8,11.62,1.89,4.44,2.84,9.14,2.84,14.11v75.44c0,3.55-.68,6.83-2.04,9.85-1.36,3.02-3.22,5.65-5.58,7.9-2.37,2.25-5.11,3.99-8.24,5.23-3.14,1.24-6.47,1.86-10.02,1.86h-49.99ZM274.08,175.05h-21.77v20.14h15.77v14.54h-15.77v5.28c0,1.53.14,2.92.41,4.18.27,1.26.98,2.43,2.14,3.49,1.28,1.2,2.64,1.79,4.06,1.79h15.16v14.54l-16.68.31c-2.85,0-5.54-.56-8.09-1.68-2.54-1.12-4.76-2.63-6.66-4.52-1.89-1.9-3.39-4.12-4.47-6.66-1.09-2.55-1.63-5.24-1.63-8.09v-43.22c0-2.03.39-3.95,1.17-5.74.78-1.8,1.85-3.36,3.21-4.68,1.35-1.32,2.93-2.35,4.72-3.1,1.8-.75,3.72-1.12,5.75-1.12l22.68.1v14.44ZM273.28,109.51V34.18c0-3.55.68-6.89,2.04-10.02s3.22-5.85,5.58-8.15c2.36-2.31,5.11-4.11,8.24-5.41,3.13-1.3,6.47-1.95,10.02-1.95l39.53.17v25.18h-37.93v35.1h27.47v25.34h-27.47v9.21c0,2.66.23,5.09.7,7.29.48,2.2,1.72,4.23,3.73,6.08,2.24,2.09,4.61,3.13,7.09,3.13h26.41v25.34l-29.07.54c-4.96,0-9.66-.98-14.09-2.93-4.44-1.95-8.31-4.58-11.61-7.89-3.31-3.3-5.91-7.18-7.8-11.61-1.9-4.43-2.84-9.13-2.84-14.09ZM317.8,175.05h-21.76v20.14h15.76v14.54h-15.76v5.28c0,1.53.14,2.92.41,4.18.27,1.26.98,2.43,2.13,3.49,1.29,1.2,2.65,1.79,4.07,1.79h15.15v14.54l-16.68.31c-2.84,0-5.54-.56-8.08-1.68-2.54-1.12-4.76-2.63-6.66-4.52-1.9-1.9-3.39-4.12-4.47-6.66-1.09-2.55-1.63-5.24-1.63-8.09v-43.22c0-2.03.39-3.95,1.17-5.74.78-1.8,1.84-3.36,3.2-4.68,1.36-1.32,2.93-2.35,4.73-3.1,1.79-.75,3.71-1.12,5.74-1.12l22.68.1v14.44ZM373.53,239.01h-19.32l-13.43-28.37v28.37h-16.47v-78.5h16.47v29.49l13.43-29.49h19.32l-18.51,39,18.51,39.5ZM414,175.05h-21.76v20.14h15.76v14.54h-15.76v5.28c0,1.53.13,2.92.4,4.18.27,1.26.98,2.43,2.14,3.49,1.29,1.2,2.64,1.79,4.07,1.79h15.15v14.54l-16.68.31c-2.85,0-5.54-.56-8.08-1.68-2.55-1.12-4.77-2.63-6.66-4.52-1.9-1.9-3.4-4.12-4.48-6.66-1.08-2.55-1.63-5.24-1.63-8.09v-43.22c0-2.03.39-3.95,1.17-5.74.78-1.8,1.85-3.36,3.21-4.68,1.35-1.32,2.93-2.35,4.73-3.1,1.79-.75,3.71-1.12,5.74-1.12l22.68.1v14.44ZM447.45,239.01l-8.84-34.27h-2.75v34.27h-15.76v-78.5h28.57c2.04,0,3.95.36,5.75,1.07,1.79.71,3.37,1.71,4.73,3,1.35,1.29,2.42,2.79,3.2,4.52.78,1.73,1.17,3.61,1.17,5.65v9.05c0,3.66-.83,6.98-2.49,9.96-1.66,2.99-3.88,5.43-6.66,7.32l9.96,37.93h-16.88ZM511.52,218.11c0,2.84-.54,5.53-1.62,8.07-1.09,2.53-2.57,4.75-4.46,6.65-1.89,1.89-4.11,3.4-6.64,4.51-2.53,1.12-5.22,1.67-8.05,1.67h-7.71c-2.03,0-3.95-.37-5.74-1.11-1.8-.75-3.38-1.75-4.73-3-1.36-1.26-2.43-2.75-3.2-4.48-.78-1.73-1.17-3.61-1.17-5.64v-4.99h15.76v4.78l-.1.11c1.21,0,2.25,0,3.12.05.88.03,1.67,0,2.37-.11.71-.1,1.38-.3,2.02-.6.64-.31,1.26-.77,1.86-1.38,1.14-1.08,1.89-2.27,2.22-3.56.34-1.28.44-2.71.3-4.27l.11-7.73h-27.66l-.11-25.58c0-2.85.54-5.55,1.63-8.1,1.08-2.55,2.57-4.77,4.46-6.67,1.9-1.9,4.11-3.42,6.65-4.54,1-.44,2.02-.8,3.07-1.06.58,1.29,1.2,2.57,1.85,3.84,1.92,3.8,4.59,7.16,7.84,9.88-.81-.02-1.67,0-2.58.05-1.74.1-3.25.76-4.53,1.98-1.14,1.09-1.87,2.28-2.17,3.58s-.42,2.75-.35,4.33v7.75h27.56v25.57ZM495.79,176.53c.57.4,1.15.78,1.74,1.14,1.37.83,2.8,1.55,4.26,2.16h-5.93l-.07-3.3ZM692.46,117.13c-3.57-7.75-9.24-12.76-15.63-12.76-10.8,0-19.56,14.29-19.56,31.93s8.76,31.93,19.56,31.93c6.39,0,12.06-5,15.63-12.75v20.79c0,7.19-1.66,14.31-5.01,20.68-3.38,6.41-7.63,18.05-9.96,38.2-.29,2.4-2.3,4.21-4.71,4.21h-.8c-2.61,0-4.73-2.11-4.73-5.75v-9.6c0-2.7-2.21-5.04-4.91-4.94-1.24.04-2.36.56-3.17,1.38-.86.86-1.39,2.05-1.39,3.35v10.83c0,2.61-2.12,4.73-4.73,4.73h-.54c-2.61,0-4.73-2.12-4.73-4.73v-10.83c0-2.62-2.12-4.74-4.73-4.74h-.55c-2.61,0-4.73,2.12-4.73,4.74v10.96c0,2.61-2.12,4.73-4.73,4.73h-.55c-2.61,0-4.73-2.12-4.73-4.73v-10.96c0-2.62-2.12-4.74-4.74-4.74h-.54c-2.62,0-4.74,2.12-4.74,4.74v10.96c0,2.61-2.12,4.73-4.73,4.73h-.54c-2.62,0-4.74-2.12-4.74-4.73v-10.96c0-2.62-2.12-4.74-4.73-4.74h-.55c-2.61,0-4.73,2.12-4.73,4.74v10.96c0,2.61-2.12,4.73-4.73,4.73h-.55c-2.66,0-4.72-2.18-4.73-4.84-.03-4.09-1.57-7.85-4.12-10.72-2.57-2.88-6.17-4.86-10.27-5.35-1.5-.18-3.1-.41-4.77-.69-5.95-1.02-10.36-6.25-10.23-12.29,0-.11.01-.22.01-.33.21-17.83-14.4-32.63-32.23-32.62-2.05,0-4.07.19-6.01.56-.35.06-.7.13-1.04.21-2.53.56-5.08.69-7.56.42-7.7-.82-14.72-5.44-18.35-12.61-.12-.24-.24-.48-.36-.72-2.39-4.82-4.43-9.84-6.06-15.04-2.55-8.07-4.14-16.55-4.67-25.32-.13-2.11-.19-4.24-.19-6.39,0-7.33.75-14.48,2.18-21.38,4.08-19.8,13.72-37.57,27.22-51.61,2.36-2.45,4.83-4.79,7.42-7,17.33-14.85,39.54-24.17,63.89-25.21,60.1-2.58,109.89,46.33,109.89,106.49v2.08ZM672.47,115.87c1.37-.78,2.83-1.2,4.36-1.2,7.33,0,13.25,9.68,13.25,21.61s-5.92,21.62-13.25,21.62c-1.53,0-2.99-.42-4.36-1.2,5.17-2.94,8.88-10.97,8.88-20.41s-3.71-17.47-8.88-20.42Z"/>
    </g>
  </g>
</svg>