<?xml version="1.0" encoding="UTF-8"?>
<svg id="Layer_2" data-name="Layer 2" xmlns="http://www.w3.org/2000/svg" viewBox="0 0 232.92 249.39">
  <defs>
    <style>
      .cls-1 {
        fill: #000;
      }

      .cls-1, .cls-2, .cls-3 {
        stroke-width: 0px;
      }

      .cls-2 {
        fill: #90c;
      }

      .cls-3 {
        fill: #fff;
      }
    </style>
  </defs>
  <g id="Layer_1-2" data-name="Layer 1">
    <g>
      <path class="cls-3" d="M232.92,137.12c0,7.64-1.41,14.96-4.09,21.32v18.93c0,8.7-2.08,17.25-6.01,24.72-2.24,4.26-5.1,11.54-7.31,23.38-.52,2.76-1,5.78-1.43,9.06-.13,1.01-.26,2.04-.38,3.1-.35,2.98-1.68,5.63-3.63,7.64-1.65,1.71-3.75,2.95-6.1,3.56-1.06.28-2.17.43-3.31.43h-.81c-2.93,0-5.58-.93-7.72-2.55-.63-.48-1.22-1.02-1.76-1.62-.82.88-1.77,1.65-2.81,2.28-1.98,1.2-4.3,1.89-6.78,1.89h-.54c-1.73,0-3.38-.34-4.9-.95-1.87-.76-3.52-1.93-4.85-3.4-1.03,1.18-2.26,2.17-3.65,2.92-1.85.99-3.96,1.56-6.21,1.56h-.56c-1.8,0-3.5-.36-5.07-1.02-1.82-.76-3.44-1.93-4.73-3.39-2.41,2.71-5.91,4.41-9.81,4.41h-.55c-2.13,0-4.14-.51-5.92-1.41-1.48-.75-2.8-1.77-3.89-3-2.02,2.27-4.8,3.83-7.95,4.28-.61.09-1.23.13-1.86.13h-.55c-.69,0-1.37-.05-2.03-.16-6.23-.98-11.04-6.44-11.09-13.01,0-.64-.08-1.27-.24-1.88-.3-1.26-.92-2.43-1.8-3.41-1.31-1.47-3.12-2.42-5.1-2.65-1.68-.2-3.44-.46-5.21-.76-2.69-.46-5.18-1.44-7.4-2.82-6.07-3.77-10.01-10.55-9.85-17.97,0,0,.01-.24.01-.3.06-6.43-2.43-12.52-7.01-17.16-4.6-4.64-10.67-7.2-17.1-7.2-1.78,0-3.56.19-5.29.58-2.27.51-4.6.76-6.92.76-5.83,0-11.56-1.6-16.56-4.63-5.1-3.08-9.2-7.5-11.88-12.79C4.13,149.91,0,132.55,0,114.41c0-29.69,11.33-57.83,31.89-79.24C52.39,13.82,79.93,1.37,109.43.11c1.65-.07,3.31-.11,4.95-.11,15.42,0,30.41,3.08,44.54,9.15,13.62,5.85,25.86,14.22,36.37,24.87,10.51,10.63,18.76,23.01,24.53,36.77,5.98,14.26,9.01,29.37,9.01,44.92v.1c2.68,6.36,4.09,13.68,4.09,21.31Z"/>
      <g>
        <g>
          <path class="cls-1" d="M204.74,104.96c6.43,0,12.15,5.04,15.74,12.84v-2.09c0-60.59-50.16-109.86-110.69-107.26C53.36,10.87,8.36,57.39,8.36,114.41c0,17.2,4.1,33.45,11.37,47.81,4.83,9.55,15.64,14.61,26.09,12.28,2.28-.51,4.66-.78,7.1-.78,17.96,0,32.67,14.9,32.46,32.85,0,.11,0,.22,0,.34-.13,6.08,4.31,11.34,10.3,12.37,1.68.29,3.29.52,4.8.7,4.13.49,7.75,2.48,10.34,5.39,2.57,2.89,4.13,6.67,4.15,10.79.02,2.68,2.09,4.87,4.77,4.87h.55c2.63,0,4.77-2.13,4.77-4.77v-11.04c0-2.63,2.13-4.77,4.77-4.77h.55c2.63,0,4.77,2.13,4.77,4.77v11.04c0,2.63,2.13,4.77,4.77,4.77h.55c2.63,0,4.77-2.13,4.77-4.77v-11.04c0-2.63,2.13-4.77,4.77-4.77h.55c2.63,0,4.77,2.13,4.77,4.77v11.04c0,2.63,2.13,4.77,4.77,4.77h.55c2.63,0,4.77-2.13,4.77-4.77v-11.04c0-2.63,2.13-4.77,4.77-4.77h.55c2.63,0,4.77,2.13,4.77,4.77v10.91c0,2.63,2.13,4.77,4.77,4.77h.54c2.63,0,4.77-2.13,4.77-4.77v-10.91c0-1.31.53-2.5,1.39-3.37.82-.82,1.94-1.34,3.19-1.39,2.72-.1,4.95,2.26,4.95,4.98v9.66c0,3.66,2.13,5.8,4.77,5.8h.81c2.43,0,4.45-1.83,4.74-4.25,2.35-20.29,6.63-32.01,10.03-38.47,3.38-6.42,5.05-13.59,5.05-20.83v-20.94c-3.59,7.8-9.31,12.84-15.74,12.84-10.88,0-19.7-14.39-19.7-32.16s8.82-32.16,19.7-32.16ZM128.96,173.67c-21.71,1.08-39.53-16.76-38.42-38.47.94-18.59,16.05-33.7,34.65-34.65,21.73-1.11,39.59,16.76,38.47,38.49-.96,18.6-16.09,33.7-34.69,34.63ZM187.65,184.89c0,.69-.23,1.34-.62,1.87-.09.12-.19.24-.3.35-.57.58-1.37.95-2.26.95-.32,0-.63-.05-.94-.14-.18-.06-.36-.13-.52-.22l-2.94-1.52c-1.68-.86-3.59-1.06-5.39-.59-.21.05-.41.12-.62.19-.12.04-.23.08-.35.13l-4.6,1.91c-.38.16-.8.24-1.21.24h-2.26c-2.09,0-3.61-1.98-3.07-4l6.65-24.81s.02-.06.03-.09c.22-.8.51-1.57.86-2.31.12-.26.25-.51.39-.76.07-.12.14-.25.21-.37.14-.24.29-.48.45-.72.39-.59.84-1.15,1.32-1.68l.33-.36c.05-.05.1-.1.15-.15.44-.43.97-.74,1.53-.91.37-.12.76-.17,1.15-.17.5,0,1.01.1,1.48.29h0c.41.18.8.42,1.14.74.05.05.1.09.14.14.15.16.3.32.44.49.14.17.28.34.4.51.26.35.49.72.7,1.11.42.76.74,1.58.96,2.44l6.64,26.67c.03.13.06.26.08.39s.03.26.03.39Z"/>
          <path class="cls-1" d="M218.08,137.1c0,12.03-5.97,21.77-13.35,21.77-1.54,0-3.02-.42-4.39-1.21,5.21-2.96,8.94-11.05,8.94-20.56,0-9.51-3.73-17.59-8.94-20.56,1.38-.79,2.85-1.21,4.39-1.21,7.38,0,13.35,9.75,13.35,21.77Z"/>
          <path class="cls-2" d="M155.34,137.12c0,15.58-12.67,28.25-28.25,28.25-2.45,0-4.83-.31-7.1-.91,12.16-3.15,21.16-14.22,21.16-27.35s-9-24.2-21.16-27.35c2.27-.59,4.65-.91,7.1-.91,15.58,0,28.25,12.67,28.25,28.25Z"/>
        </g>
        <path class="cls-1" d="M181.72,181.41c-1.4-.62-2.91-.98-4.43-1.06l-4.12-16.51.88-3.28c.17-.59.35-1.1.58-1.57.09-.19.17-.35.24-.48l.17-.3c.07-.12.17-.27.29-.45.07-.11.15-.22.23-.33.21.39.38.8.48,1.23l5.67,22.75Z"/>
      </g>
    </g>
  </g>
</svg>