<?xml version="1.0" encoding="UTF-8"?>
<svg id="Layer_2" data-name="Layer 2" xmlns="http://www.w3.org/2000/svg" viewBox="0 0 232.92 249.39">
  <defs>
    <style>
      .cls-1 {
        fill: #000;
        stroke-width: 0px;
      }
    </style>
  </defs>
  <g id="Layer_1-2" data-name="Layer 1">
    <g>
      <path class="cls-1" d="M125.18,100.56c-18.59.94-33.7,16.05-34.64,34.65-1.1,21.7,16.71,39.54,38.42,38.46,18.6-.92,33.73-16.02,34.69-34.62,1.12-21.73-16.74-39.6-38.47-38.49ZM127.09,165.37c-2.44,0-4.82-.31-7.09-.91,12.16-3.15,21.15-14.22,21.15-27.34s-8.99-24.2-21.15-27.35c2.27-.6,4.65-.91,7.09-.91,15.58,0,28.26,12.67,28.26,28.26s-12.68,28.25-28.26,28.25Z"/>
      <path class="cls-1" d="M179.95,155c-.21-.38-.45-.75-.7-1.1-.13-.18-.26-.35-.41-.52-.13-.16-.28-.33-.43-.49-.05-.05-.1-.09-.15-.14-.34-.32-.73-.57-1.14-.75-.47-.19-.98-.29-1.48-.29-.39,0-.78.06-1.15.17-.56.18-1.09.48-1.53.92-.05.04-.1.09-.15.15l-.33.35c-.48.53-.92,1.09-1.31,1.68-.16.24-.31.48-.46.72-.07.13-.14.25-.21.37-.14.25-.27.5-.39.76-.35.74-.64,1.52-.85,2.31-.01.03-.02.06-.03.09l-6.66,24.82c-.54,2.01.99,4,3.07,4h2.27c.41,0,.82-.08,1.21-.24l4.6-1.91c.12-.05.23-.09.35-.13.2-.07.41-.14.62-.19,1.79-.47,3.71-.27,5.39.59l2.94,1.52c.16.09.34.16.52.22.3.09.62.14.94.14.89,0,1.69-.37,2.26-.95.1-.1.2-.22.29-.34.4-.53.63-1.19.63-1.87,0-.13,0-.27-.03-.4-.02-.13-.04-.26-.08-.38l-6.64-26.67c-.22-.85-.54-1.67-.96-2.44ZM177.29,180.34l-4.11-16.51.88-3.28c.17-.59.35-1.1.58-1.57.09-.19.17-.35.24-.48l.17-.3c.07-.12.17-.27.29-.45.07-.1.15-.21.23-.32.21.39.37.8.48,1.23l5.67,22.75c-1.4-.62-2.9-.98-4.43-1.07Z"/>
      <path class="cls-1" d="M228.83,115.81v-.1c0-15.55-3.03-30.66-9.01-44.92-5.77-13.76-14.02-26.14-24.53-36.77-10.51-10.65-22.75-19.02-36.37-24.87C144.79,3.08,129.8,0,114.39,0c-1.65,0-3.31.04-4.95.11-29.5,1.26-57.04,13.71-77.54,35.06C11.33,56.58,0,84.72,0,114.41c0,18.14,4.14,35.5,12.27,51.58,2.69,5.29,6.78,9.71,11.89,12.79,5,3.03,10.73,4.63,16.55,4.63,2.32,0,4.65-.25,6.93-.76,1.72-.39,3.51-.58,5.28-.58,6.43,0,12.5,2.56,17.1,7.2,4.58,4.64,7.07,10.73,7.01,17.16,0,.06-.01.3-.01.3-.16,7.42,3.78,14.2,9.86,17.97,2.21,1.38,4.7,2.36,7.39,2.82,1.77.3,3.53.56,5.21.76,1.98.23,3.79,1.18,5.1,2.65.88.98,1.5,2.15,1.81,3.41.15.61.24,1.24.24,1.88.04,6.57,4.85,12.03,11.08,13.01.67.11,1.34.16,2.03.16h.55c.63,0,1.25-.04,1.87-.13,3.14-.45,5.92-2.01,7.94-4.28,1.09,1.23,2.41,2.25,3.89,3,1.78.9,3.79,1.41,5.93,1.41h.54c3.9,0,7.4-1.7,9.81-4.41,1.29,1.46,2.92,2.63,4.73,3.39,1.57.66,3.27,1.02,5.07,1.02h.57c2.25,0,4.35-.57,6.2-1.56,1.39-.75,2.62-1.74,3.65-2.92,1.33,1.47,2.99,2.64,4.85,3.4,1.52.61,3.17.95,4.9.95h.54c2.48,0,4.8-.69,6.78-1.89,1.04-.63,1.99-1.4,2.82-2.28.54.6,1.12,1.14,1.76,1.62,2.13,1.62,4.78,2.55,7.71,2.55h.82c1.13,0,2.25-.15,3.31-.43,2.34-.61,4.44-1.85,6.09-3.56,1.95-2.01,3.28-4.66,3.64-7.64.11-1.06.25-2.09.37-3.1.43-3.28.91-6.3,1.43-9.06,2.22-11.84,5.07-19.12,7.31-23.38,3.93-7.47,6.01-16.02,6.01-24.72v-18.93c2.68-6.36,4.09-13.68,4.09-21.32s-1.41-14.95-4.09-21.31ZM220.48,117.8c-3.59-7.8-9.3-12.84-15.74-12.84-10.88,0-19.7,14.39-19.7,32.16s8.82,32.16,19.7,32.15c6.44,0,12.15-5.04,15.74-12.84v20.94c0,7.24-1.67,14.41-5.05,20.83-2.66,5.06-5.86,13.34-8.26,26.44-.51,2.81-.98,5.84-1.41,9.1-.12.96-.24,1.93-.36,2.93-.28,2.42-2.31,4.25-4.74,4.25h-.8c-2.64,0-4.77-2.13-4.77-5.8v-9.66c0-.26-.02-.52-.07-.77-.36-2.38-2.42-4.3-4.88-4.21-1.25.04-2.37.56-3.19,1.39-.75.76-1.26,1.76-1.38,2.87-.01.17-.02.33-.02.5v10.91c0,1.34-.55,2.55-1.44,3.41-.85.85-2.03,1.36-3.32,1.36h-.54c-2.64,0-4.77-2.14-4.77-4.77v-10.91c0-.1,0-.19,0-.29-.15-2.5-2.23-4.48-4.76-4.48h-.55c-2.42,0-4.42,1.82-4.72,4.16-.03.2-.04.4-.04.61v11.04c0,2.63-2.14,4.76-4.77,4.76h-.55c-1.52,0-2.87-.71-3.75-1.81h0c-.64-.82-1.02-1.85-1.02-2.95v-11.04c0-.17-.01-.34-.02-.51-.26-2.39-2.28-4.26-4.74-4.26h-.56c-2.44,0-4.45,1.84-4.73,4.21-.02.19-.03.37-.03.56v11.04c0,2.63-2.14,4.76-4.77,4.76h-.55c-2.63,0-4.76-2.13-4.76-4.76v-11.04c0-.2-.01-.4-.04-.6-.29-2.35-2.3-4.17-4.73-4.17h-.55c-2.64,0-4.77,2.14-4.77,4.77v11.04c0,.4-.05.79-.15,1.17-.26,1.05-.88,1.96-1.72,2.6h0c-.8.63-1.8.99-2.9.99h-.55c-2.67,0-4.75-2.19-4.77-4.87-.02-3.52-1.16-6.79-3.1-9.47h-.01c-.31-.46-.67-.9-1.04-1.32-2.58-2.91-6.21-4.9-10.34-5.39-1.51-.19-3.12-.42-4.8-.7-6-1.03-10.44-6.3-10.3-12.38v-.33c.21-17.96-14.5-32.86-32.46-32.86-2.44,0-4.82.27-7.1.78-10.45,2.33-21.26-2.73-26.09-12.28-7.27-14.36-11.37-30.61-11.37-47.81C8.36,57.39,53.36,10.87,109.8,8.45c60.53-2.6,110.68,46.66,110.68,107.26v2.09ZM200.35,116.53c1.38-.78,2.85-1.21,4.39-1.21,7.38,0,13.35,9.76,13.35,21.78s-5.97,21.77-13.35,21.77c-1.54,0-3.01-.42-4.39-1.21,5.21-2.96,8.94-11.05,8.94-20.56s-3.73-17.6-8.94-20.57Z"/>
    </g>
  </g>
</svg>