<?xml version="1.0" encoding="UTF-8"?>
<svg id="Layer_2" data-name="Layer 2" xmlns="http://www.w3.org/2000/svg" viewBox="0 0 234.92 342.22">
  <defs>
    <style>
      .cls-1 {
        fill: #000;
      }

      .cls-1, .cls-2, .cls-3 {
        stroke-width: 0px;
      }

      .cls-2 {
        fill: #90c;
      }

      .cls-3 {
        fill: #fff;
      }
    </style>
  </defs>
  <g id="Layer_1-2" data-name="Layer 1">
    <g>
      <g>
        <path class="cls-3" d="M234.92,281.99v-32.51c0-3.36-.66-6.61-1.96-9.65-1.26-2.97-3.04-5.62-5.29-7.87-2.22-2.22-4.83-4-7.77-5.29-1.1-.49-2.23-.89-3.39-1.2-2.05-.56-4.18-.84-6.35-.84h-2s-12.14.06-12.14.06h-.01l-9.44.05h-2.53v2.63c-.45-.23-.91-.44-1.37-.64-1.98-.84-4.06-1.44-6.21-1.78-.98-.16-1.98-.26-2.99-.31h-.24s-5.93,0-5.93,0c-.18,0-.36,0-.54,0-.11,0-.22,0-.33,0-2.06.03-4.08.37-6,1.02v-.9l-4.14-.02-10.04-.05-10.15-.04h-1.79c-2.73,0-5.35.51-7.81,1.53-.15.06-.3.13-.44.19-2.24.99-4.24,2.34-5.97,4.02-.19.19-.39.39-.58.59-1.96-1.75-4.2-3.18-6.64-4.27h-.01s-.04-.02-.06-.03c-3.07-1.35-6.34-2.04-9.74-2.04l-15.19.07-10.94.05-22.69-.09-3.44-.03H0v52.33c0,3.36.66,6.61,1.95,9.64,1.27,2.97,3.05,5.62,5.3,7.86,2.21,2.22,4.83,4,7.77,5.3,3.06,1.34,6.34,2.03,9.73,2.03h5.81c2.55,0,5.02-.45,7.35-1.32v1.32h40.2c-.78,2.04-1.18,4.21-1.18,6.46l.05,11.01v7.61c0,2.17.44,4.24,1.3,6.16.84,1.86,2.02,3.5,3.5,4.87,1.37,1.27,2.96,2.28,4.72,3.01,1.88.78,3.89,1.18,5.97,1.18h3.32c2.48,0,4.88-.5,7.13-1.49,1.06-.47,2.08-1.03,3.03-1.68,1,.7,2.08,1.31,3.21,1.81,2.25.99,4.66,1.49,7.24,1.49l15.57-.28c1.05.19,2.13.28,3.27.28l7.17-.13h32.06c.73.09,1.45.13,2.14.13h.08l7.18-.13h33c2.49,0,4.89-.5,7.14-1.49,2.12-.94,4.02-2.23,5.63-3.84,1.63-1.64,2.93-3.57,3.85-5.73.95-2.22,1.43-4.58,1.43-7.04v-20.11h-.07c-.16-1.7-.6-3.33-1.32-4.87-.79-1.67-1.85-3.18-3.15-4.47,1.15-1.39,2.11-2.92,2.86-4.58,1.11-2.47,1.68-5.16,1.68-7.97ZM59.36,233.95l9.17,19.48h0l-9.17-19.48h-12.45,12.45ZM22.84,280.4c.97.91,2.12,1.41,3.44,1.49,1.33.07,2.52.06,3.59-.04h0c-1.07.1-2.26.11-3.59.04-1.32-.08-2.47-.58-3.44-1.49-.86-.82-1.4-1.71-1.6-2.68-.2-.96-.31-2.03-.31-3.2h0c0,1.17.11,2.24.31,3.2.2.97.74,1.86,1.6,2.68ZM9.09,233.72h11.84-11.84ZM41.71,233.72h-11.84,11.84ZM80.91,233.95h-12.38,12.38ZM97.99,319.24l-.05,3.33h0l.05-3.33h0ZM97.81,324.41c-.14.56-.46,1.07-.95,1.54-.26.26-.53.46-.81.59-.27.13-.56.22-.87.26-.3.04-.64.06-1.02.04-.37,0-.82-.02-1.34-.02h0c.52,0,.97.01,1.34.02.38.02.72,0,1.02-.04.31-.04.6-.13.87-.26.28-.13.55-.33.81-.59.49-.47.81-.98.95-1.54.07-.28.12-.57.14-.88-.02.31-.07.6-.14.88ZM92.86,324.72h-6.79,6.79ZM104.74,312.97h-11.88,11.88ZM104.74,305.3c0-.87-.18-1.68-.53-2.43-.35-.74-.81-1.39-1.4-1.95-.58-.55-1.26-.98-2.03-1.29s-1.6-.46-2.47-.46h-3.32c-1.23,0-2.39.24-3.48.72-1.09.49-2.05,1.14-2.86,1.96-.82.82-1.46,1.78-1.93,2.87-.46,1.1-.7,2.27-.7,3.5h0c0-1.23.24-2.4.7-3.5.47-1.09,1.11-2.05,1.93-2.87.81-.82,1.77-1.47,2.86-1.96,1.09-.48,2.25-.72,3.48-.72h3.32c.87,0,1.7.15,2.47.46s1.45.74,2.03,1.29c.59.56,1.05,1.21,1.4,1.95.35.75.53,1.56.53,2.43h0ZM123.49,326.74h-6.53c-.61,0-1.19-.26-1.75-.78-.5-.46-.8-.96-.92-1.5s-.17-1.15-.17-1.8h0c0,.65.05,1.26.17,1.8s.42,1.04.92,1.5c.56.52,1.14.78,1.75.78h6.53ZM120.91,314.11h-6.79,6.79ZM123.49,299.21l-9.77-.04c-.88,0-1.7.16-2.48.48-.77.32-1.45.77-2.03,1.34-.59.57-1.05,1.24-1.38,2.01-.34.78-.51,1.6-.51,2.48h0c0-.88.17-1.7.51-2.48.33-.77.79-1.44,1.38-2.01.58-.57,1.26-1.02,2.03-1.34.78-.32,1.6-.48,2.48-.48l9.77.04h0ZM142.34,326.74h-6.53c-.61,0-1.2-.26-1.75-.78-.5-.46-.81-.96-.92-1.5-.12-.54-.18-1.15-.18-1.8h0c0,.65.06,1.26.18,1.8.11.54.42,1.04.92,1.5.55.52,1.14.78,1.75.78h6.53ZM139.75,314.11h-6.79,6.79ZM142.34,299.21l-9.77-.04c-.88,0-1.71.16-2.48.48s-1.45.77-2.04,1.34c-.58.57-1.04,1.24-1.38,2.01-.33.78-.5,1.6-.5,2.48h0c0-.88.17-1.7.5-2.48.34-.77.8-1.44,1.38-2.01.59-.57,1.27-1.02,2.04-1.34s1.6-.48,2.48-.48l9.77.04h0ZM145.14,299.17h7.1-7.1ZM166.36,333l-7.98-17.02h0l7.98,17.02h0ZM166.36,299.17h-8.33l-5.79,12.71h0l5.79-12.71h8.33ZM183.8,326.74h-6.53c-.62,0-1.2-.26-1.76-.78-.49-.46-.8-.96-.92-1.5-.11-.54-.17-1.15-.17-1.8h0c0,.65.06,1.26.17,1.8.12.54.43,1.04.92,1.5.56.52,1.14.78,1.76.78h6.53ZM181.21,314.11h-6.79,6.79ZM183.8,299.21l-9.78-.04c-.87,0-1.7.16-2.47.48-.78.32-1.46.77-2.04,1.34-.58.57-1.04,1.24-1.38,2.01-.34.78-.5,1.6-.5,2.48h0c0-.88.16-1.7.5-2.48.34-.77.8-1.44,1.38-2.01.58-.57,1.26-1.02,2.04-1.34.77-.32,1.6-.48,2.47-.48l9.78.04h0ZM219.08,319.24l-.05,3.33h0l.05-3.33h0ZM218.9,324.41c-.14.56-.46,1.07-.95,1.54-.26.26-.53.46-.81.59-.27.13-.56.22-.87.26-.3.04-.64.06-1.02.04-.37,0-.82-.02-1.34-.02h0c.52,0,.97.01,1.34.02.38.02.72,0,1.02-.04.31-.04.6-.13.87-.26.28-.13.55-.33.81-.59.49-.47.81-.98.95-1.54.07-.28.12-.57.14-.88-.02.31-.07.6-.14.88ZM213.95,324.72h-6.79,6.79ZM225.83,312.97h-11.88,11.88ZM225.83,305.3c0-.87-.18-1.68-.53-2.43-.35-.74-.81-1.39-1.4-1.95-.58-.55-1.26-.98-2.03-1.29s-1.6-.46-2.47-.46h-3.32c-1.23,0-2.39.24-3.48.72-1.09.49-2.05,1.14-2.86,1.96-.82.82-1.46,1.78-1.93,2.87-.46,1.1-.7,2.27-.7,3.5h0c0-1.23.24-2.4.7-3.5.47-1.09,1.11-2.05,1.93-2.87.81-.82,1.77-1.47,2.86-1.96,1.09-.48,2.25-.72,3.48-.72h3.32c.87,0,1.7.15,2.47.46s1.45.74,2.03,1.29c.59.56,1.05,1.21,1.4,1.95.35.75.53,1.56.53,2.43h0Z"/>
        <g>
          <g>
            <path class="cls-1" d="M92.86,309.63v3.34h11.88v11.02c0,1.23-.24,2.39-.7,3.48-.47,1.09-1.11,2.05-1.92,2.86-.82.82-1.77,1.47-2.86,1.95s-2.25.72-3.47.72h-3.32c-.88,0-1.71-.16-2.48-.48-.77-.32-1.45-.75-2.04-1.29-.58-.54-1.04-1.19-1.38-1.93-.33-.75-.5-1.56-.5-2.43v-2.15h6.79v2.06l-.04.04c.52,0,.97.01,1.34.02.38.02.72,0,1.02-.04.31-.04.6-.13.87-.26.28-.13.55-.33.81-.59.49-.47.81-.98.95-1.54.15-.55.19-1.17.13-1.84l.05-3.33h-11.92l-.05-11.02c0-1.23.24-2.4.7-3.5.47-1.09,1.11-2.05,1.93-2.87.81-.82,1.77-1.47,2.86-1.96,1.09-.48,2.25-.72,3.48-.72h3.32c.87,0,1.7.15,2.47.46s1.45.74,2.03,1.29c.59.56,1.05,1.21,1.4,1.95.35.75.53,1.56.53,2.43v2.2h-6.75l-.05-2.11c-.6-.06-1.29-.06-2.04-.02s-1.4.33-1.95.85c-.5.47-.81.99-.94,1.55-.13.56-.18,1.18-.15,1.86Z"/>
            <path class="cls-1" d="M114.12,305.44v8.67h6.79v6.27h-6.79v2.28c0,.65.05,1.26.17,1.8s.42,1.04.92,1.5c.56.52,1.14.78,1.75.78h6.53v6.26l-7.18.13c-1.23,0-2.39-.24-3.49-.72-1.09-.48-2.05-1.13-2.87-1.95-.82-.82-1.46-1.77-1.93-2.87-.46-1.1-.7-2.26-.7-3.48v-18.63c0-.88.17-1.7.51-2.48.33-.77.79-1.44,1.38-2.01.58-.57,1.26-1.02,2.03-1.34.78-.32,1.6-.48,2.48-.48l9.77.04v6.23h-9.37Z"/>
            <path class="cls-1" d="M132.96,305.44v8.67h6.79v6.27h-6.79v2.28c0,.65.06,1.26.18,1.8.11.54.42,1.04.92,1.5.55.52,1.14.78,1.75.78h6.53v6.26l-7.19.13c-1.23,0-2.39-.24-3.48-.72-1.1-.48-2.06-1.13-2.87-1.95-.82-.82-1.46-1.77-1.93-2.87s-.7-2.26-.7-3.48v-18.63c0-.88.17-1.7.5-2.48.34-.77.8-1.44,1.38-2.01.59-.57,1.27-1.02,2.04-1.34s1.6-.48,2.48-.48l9.77.04v6.23h-9.38Z"/>
            <polygon class="cls-1" points="158.38 315.98 166.36 333 158.03 333 152.24 320.77 152.24 333 145.14 333 145.14 299.17 152.24 299.17 152.24 311.88 158.03 299.17 166.36 299.17 158.38 315.98"/>
            <path class="cls-1" d="M174.42,305.44v8.67h6.79v6.27h-6.79v2.28c0,.65.06,1.26.17,1.8.12.54.43,1.04.92,1.5.56.52,1.14.78,1.76.78h6.53v6.26l-7.19.13c-1.23,0-2.39-.24-3.48-.72-1.1-.48-2.06-1.13-2.87-1.95-.82-.82-1.47-1.77-1.93-2.87-.47-1.1-.7-2.26-.7-3.48v-18.63c0-.88.16-1.7.5-2.48.34-.77.8-1.44,1.38-2.01.58-.57,1.26-1.02,2.04-1.34.77-.32,1.6-.48,2.47-.48l9.78.04v6.23h-9.38Z"/>
            <path class="cls-1" d="M201.2,316.66c1.19-.82,2.15-1.87,2.87-3.16.71-1.29,1.07-2.72,1.07-4.3v-3.9c0-.87-.17-1.68-.5-2.43-.34-.74-.8-1.39-1.38-1.95-.59-.55-1.27-.98-2.04-1.29-.78-.31-1.6-.46-2.48-.46h-12.31v33.83h6.79v-14.77h1.18l3.82,14.77h7.27l-4.29-16.34ZM198.39,307.85c0,.67-.06,1.28-.17,1.84-.12.55-.43,1.06-.92,1.53-.56.53-1.22.8-1.98.83-.76.03-1.46.02-2.1-.04v-6.57h5.17v2.41Z"/>
            <path class="cls-1" d="M213.95,309.63v3.34h11.88v11.02c0,1.23-.24,2.39-.7,3.48-.47,1.09-1.11,2.05-1.92,2.86s-1.77,1.47-2.86,1.95c-1.1.48-2.25.72-3.48.72h-3.31c-.88,0-1.71-.16-2.48-.48-.78-.32-1.45-.75-2.04-1.29-.58-.54-1.04-1.19-1.38-1.93-.34-.75-.5-1.56-.5-2.43v-2.15h6.79v2.06l-.04.04c.52,0,.97.01,1.34.02.38.02.72,0,1.02-.04.31-.04.6-.13.87-.26.28-.13.55-.33.81-.59.49-.47.81-.98.95-1.54.15-.55.19-1.17.13-1.84l.05-3.33h-11.92l-.05-11.02c0-1.23.24-2.4.7-3.5.47-1.09,1.11-2.05,1.93-2.87.81-.82,1.77-1.47,2.86-1.96,1.09-.48,2.25-.72,3.48-.72h3.32c.87,0,1.7.15,2.47.46s1.45.74,2.03,1.29c.59.56,1.05,1.21,1.4,1.95.35.75.53,1.56.53,2.43v2.2h-6.75l-.05-2.11c-.61-.06-1.29-.06-2.04-.02s-1.4.33-1.95.85c-.5.47-.81.99-.94,1.55s-.18,1.18-.15,1.86Z"/>
          </g>
          <g>
            <path class="cls-2" d="M41.71,233.72v48.28c0,1.53-.29,2.94-.87,4.24-.59,1.3-1.39,2.43-2.41,3.4-1.02.97-2.2,1.72-3.55,2.26-1.35.53-2.79.8-4.32.8h-5.81c-2.13,0-4.16-.42-6.07-1.26-1.91-.84-3.58-1.98-5-3.4s-2.55-3.1-3.36-5.01c-.82-1.91-1.23-3.93-1.23-6.07v-43.24h11.84v40.8c0,1.17.11,2.24.31,3.2.2.97.74,1.86,1.6,2.68.97.91,2.12,1.41,3.44,1.49,1.33.07,2.52.06,3.59-.04v-48.13h11.84Z"/>
            <polygon class="cls-2" points="80.91 233.95 80.91 292.7 68.53 292.7 68.53 280.32 59.36 260.08 59.36 292.7 46.99 292.7 46.91 233.95 59.36 233.95 68.53 253.43 68.53 233.95 80.91 233.95"/>
            <path class="cls-2" d="M118.71,249.23c-.02-2.05-.43-3.99-1.21-5.83-.82-1.92-1.94-3.59-3.36-5.01-1.43-1.43-3.1-2.57-5.01-3.41-.57-.25-1.16-.47-1.75-.64-1.38-.41-2.82-.62-4.32-.62l-17.04.08v58.9h21.55c1.52,0,2.96-.27,4.31-.81,1.35-.53,2.54-1.28,3.56-2.25,1.01-.97,1.82-2.11,2.4-3.41.59-1.3.88-2.71.88-4.24v-32.51c0-.08,0-.17-.01-.25ZM106.88,281.77h-9.02v-37.2c1.12-.1,2.35-.12,3.67-.04,1.33.08,2.47.57,3.44,1.49.87.81,1.4,1.71,1.6,2.67.21.97.31,2.04.31,3.21v29.87Z"/>
            <path class="cls-2" d="M134.99,259.77h11.84v10.93h-11.84v3.96c0,1.15.1,2.2.31,3.15.2.94.74,1.82,1.6,2.62.97.89,1.99,1.34,3.06,1.34h11.38v10.93l-12.53.23c-2.14,0-4.16-.42-6.07-1.26-1.91-.84-3.58-1.98-5.01-3.4-1.42-1.43-2.54-3.1-3.36-5.01-.81-1.91-1.22-3.93-1.22-6.07v-32.47c0-1.53.29-2.97.88-4.32.05-.12.1-.22.16-.34h0c.45-.97,1.03-1.84,1.71-2.61h.01c.18-.2.35-.38.53-.56,1.01-.99,2.2-1.77,3.55-2.33,1.35-.56,2.79-.84,4.32-.84h1.83s10.08.05,10.08.05l5.12.02v10.85h-16.35v15.13Z"/>
            <path class="cls-2" d="M188.56,247.37c-.18-1.37-.54-2.69-1.08-3.95-.62-1.41-1.4-2.7-2.37-3.86-.31-.38-.65-.75-1-1.1-1.42-1.43-3.09-2.55-5-3.37-.86-.36-1.73-.66-2.64-.87-1.11-.28-2.25-.44-3.43-.5h-5.89c-.26,0-.51,0-.76,0-1.25.04-2.43.28-3.55.72-1.35.54-2.54,1.29-3.55,2.26-.78.74-1.44,1.58-1.96,2.53-.17.29-.31.59-.45.9-.59,1.32-.88,2.75-.88,4.27v48.3h11.84v-25.75h9.02v25.75h11.84v-43.24c0-.71-.05-1.41-.14-2.09ZM176.86,256.03h-9.02v-11.23h1.76c.65,0,1.29.04,1.89.11h.02c.61.08,1.22.22,1.83.42.61.21,1.15.54,1.61,1,.65.61,1.11,1.27,1.39,1.98.09.24.16.48.21.73.2.99.31,2.07.31,3.24v3.75Z"/>
            <path class="cls-2" d="M224.6,243.4c-.81-1.92-1.93-3.59-3.36-5.01-1.42-1.43-3.09-2.57-5-3.41-.38-.17-.77-.32-1.16-.45-1.57-.54-3.21-.81-4.91-.81l-3.41.02-10.68.05h-2.95v58.91h21.54c1.53,0,2.97-.27,4.32-.81,1.35-.53,2.53-1.28,3.55-2.25,1.02-.97,1.82-2.11,2.41-3.41.58-1.3.88-2.71.88-4.24v-32.51c0-2.14-.41-4.17-1.23-6.08ZM213.98,281.77h-9.01v-37.2c1.12-.1,2.34-.12,3.67-.04.89.05,1.7.29,2.43.74.36.2.69.45,1,.75.87.81,1.41,1.71,1.61,2.67.2.97.3,2.04.3,3.21v29.87Z"/>
          </g>
        </g>
      </g>
      <g>
        <path class="cls-3" d="M233.92,137.12c0,7.64-1.41,14.96-4.09,21.32v18.93c0,8.7-2.08,17.25-6.01,24.72-2.24,4.26-5.1,11.54-7.31,23.38-.52,2.76-1,5.78-1.43,9.06-.13,1.01-.26,2.04-.38,3.1-.35,2.98-1.68,5.63-3.63,7.64-1.65,1.71-3.75,2.95-6.1,3.56-1.06.28-2.17.43-3.31.43h-.81c-2.93,0-5.58-.93-7.72-2.55-.63-.48-1.22-1.02-1.76-1.62-.82.88-1.77,1.65-2.81,2.28-1.98,1.2-4.3,1.89-6.78,1.89h-.54c-1.73,0-3.38-.34-4.9-.95-1.87-.76-3.52-1.93-4.85-3.4-1.03,1.18-2.26,2.17-3.65,2.92-1.85.99-3.96,1.56-6.21,1.56h-.56c-1.8,0-3.5-.36-5.07-1.02-1.82-.76-3.44-1.93-4.73-3.39-2.41,2.71-5.91,4.41-9.81,4.41h-.55c-2.13,0-4.14-.51-5.92-1.41-1.48-.75-2.8-1.77-3.89-3-2.02,2.27-4.8,3.83-7.95,4.28-.61.09-1.23.13-1.86.13h-.55c-.69,0-1.37-.05-2.03-.16-6.23-.98-11.04-6.44-11.09-13.01,0-.64-.08-1.27-.24-1.88-.3-1.26-.92-2.43-1.8-3.41-1.31-1.47-3.12-2.42-5.1-2.65-1.68-.2-3.44-.46-5.21-.76-2.69-.46-5.18-1.44-7.4-2.82-6.07-3.77-10.01-10.55-9.85-17.97,0,0,.01-.24.01-.3.06-6.43-2.43-12.52-7.01-17.16-4.6-4.64-10.67-7.2-17.1-7.2-1.78,0-3.56.19-5.29.58-2.27.51-4.6.76-6.92.76-5.83,0-11.56-1.6-16.56-4.63-5.1-3.08-9.2-7.5-11.88-12.79C5.13,149.91,1,132.55,1,114.41c0-29.69,11.33-57.83,31.89-79.24C53.39,13.82,80.93,1.37,110.43.11c1.65-.07,3.31-.11,4.95-.11,15.42,0,30.41,3.08,44.54,9.15,13.62,5.85,25.86,14.22,36.37,24.87,10.51,10.63,18.76,23.01,24.53,36.77,5.98,14.26,9.01,29.37,9.01,44.92v.1c2.68,6.36,4.09,13.68,4.09,21.31Z"/>
        <g>
          <g>
            <path class="cls-1" d="M205.74,104.96c6.43,0,12.15,5.04,15.74,12.84v-2.09c0-60.59-50.16-109.86-110.69-107.26C54.36,10.87,9.36,57.39,9.36,114.41c0,17.2,4.1,33.45,11.37,47.81,4.83,9.55,15.64,14.61,26.09,12.28,2.28-.51,4.66-.78,7.1-.78,17.96,0,32.67,14.9,32.46,32.85,0,.11,0,.22,0,.34-.13,6.08,4.31,11.34,10.3,12.37,1.68.29,3.29.52,4.8.7,4.13.49,7.75,2.48,10.34,5.39,2.57,2.89,4.13,6.67,4.15,10.79.02,2.68,2.09,4.87,4.77,4.87h.55c2.63,0,4.77-2.13,4.77-4.77v-11.04c0-2.63,2.13-4.77,4.77-4.77h.55c2.63,0,4.77,2.13,4.77,4.77v11.04c0,2.63,2.13,4.77,4.77,4.77h.55c2.63,0,4.77-2.13,4.77-4.77v-11.04c0-2.63,2.13-4.77,4.77-4.77h.55c2.63,0,4.77,2.13,4.77,4.77v11.04c0,2.63,2.13,4.77,4.77,4.77h.55c2.63,0,4.77-2.13,4.77-4.77v-11.04c0-2.63,2.13-4.77,4.77-4.77h.55c2.63,0,4.77,2.13,4.77,4.77v10.91c0,2.63,2.13,4.77,4.77,4.77h.54c2.63,0,4.77-2.13,4.77-4.77v-10.91c0-1.31.53-2.5,1.39-3.37.82-.82,1.94-1.34,3.19-1.39,2.72-.1,4.95,2.26,4.95,4.98v9.66c0,3.66,2.13,5.8,4.77,5.8h.81c2.43,0,4.45-1.83,4.74-4.25,2.35-20.29,6.63-32.01,10.03-38.47,3.38-6.42,5.05-13.59,5.05-20.83v-20.94c-3.59,7.8-9.31,12.84-15.74,12.84-10.88,0-19.7-14.39-19.7-32.16s8.82-32.16,19.7-32.16ZM129.96,173.67c-21.71,1.08-39.53-16.76-38.42-38.47.94-18.59,16.05-33.7,34.65-34.65,21.73-1.11,39.59,16.76,38.47,38.49-.96,18.6-16.09,33.7-34.69,34.63ZM188.65,184.89c0,.69-.23,1.34-.62,1.87-.09.12-.19.24-.3.35-.57.58-1.37.95-2.26.95-.32,0-.63-.05-.94-.14-.18-.06-.36-.13-.52-.22l-2.94-1.52c-1.68-.86-3.59-1.06-5.39-.59-.21.05-.41.12-.62.19-.12.04-.23.08-.35.13l-4.6,1.91c-.38.16-.8.24-1.21.24h-2.26c-2.09,0-3.61-1.98-3.07-4l6.65-24.81s.02-.06.03-.09c.22-.8.51-1.57.86-2.31.12-.26.25-.51.39-.76.07-.12.14-.25.21-.37.14-.24.29-.48.45-.72.39-.59.84-1.15,1.32-1.68l.33-.36c.05-.05.1-.1.15-.15.44-.43.97-.74,1.53-.91.37-.12.76-.17,1.15-.17.5,0,1.01.1,1.48.29h0c.41.18.8.42,1.14.74.05.05.1.09.14.14.15.16.3.32.44.49.14.17.28.34.4.51.26.35.49.72.7,1.11.42.76.74,1.58.96,2.44l6.64,26.67c.03.13.06.26.08.39s.03.26.03.39Z"/>
            <path class="cls-1" d="M219.08,137.1c0,12.03-5.97,21.77-13.35,21.77-1.54,0-3.02-.42-4.39-1.21,5.21-2.96,8.94-11.05,8.94-20.56,0-9.51-3.73-17.59-8.94-20.56,1.38-.79,2.85-1.21,4.39-1.21,7.38,0,13.35,9.75,13.35,21.77Z"/>
            <path class="cls-2" d="M156.34,137.12c0,15.58-12.67,28.25-28.25,28.25-2.45,0-4.83-.31-7.1-.91,12.16-3.15,21.16-14.22,21.16-27.35s-9-24.2-21.16-27.35c2.27-.59,4.65-.91,7.1-.91,15.58,0,28.25,12.67,28.25,28.25Z"/>
          </g>
          <path class="cls-1" d="M182.72,181.41c-1.4-.62-2.91-.98-4.43-1.06l-4.12-16.51.88-3.28c.17-.59.35-1.1.58-1.57.09-.19.17-.35.24-.48l.17-.3c.07-.12.17-.27.29-.45.07-.11.15-.22.23-.33.21.39.38.8.48,1.23l5.67,22.75Z"/>
        </g>
      </g>
    </g>
  </g>
</svg>