<?xml version="1.0" encoding="UTF-8"?>
<svg id="Layer_2" data-name="Layer 2" xmlns="http://www.w3.org/2000/svg" viewBox="0 0 234.92 342.22">
  <defs>
    <style>
      .cls-1 {
        fill: #000;
        stroke-width: 0px;
      }
    </style>
  </defs>
  <g id="Layer_1-2" data-name="Layer 1">
    <g>
      <path class="cls-1" d="M234.92,281.99v-32.51c0-3.36-.66-6.61-1.96-9.65-1.25-2.97-3.04-5.62-5.29-7.87-2.21-2.22-4.83-4-7.76-5.29-1.11-.49-2.24-.89-3.4-1.2,2.22-11.84,5.07-19.12,7.31-23.38,3.93-7.47,6.01-16.02,6.01-24.72v-18.93c2.68-6.36,4.09-13.68,4.09-21.32s-1.41-14.95-4.09-21.31v-.1c0-15.55-3.03-30.66-9.01-44.92-5.77-13.76-14.02-26.14-24.53-36.77-10.51-10.65-22.75-19.02-36.37-24.87C145.79,3.08,130.8,0,115.39,0c-1.65,0-3.31.04-4.95.11-29.5,1.26-57.04,13.71-77.54,35.06C12.33,56.58,1,84.72,1,114.41c0,18.14,4.14,35.5,12.27,51.58,2.69,5.29,6.78,9.71,11.89,12.79,5,3.03,10.73,4.63,16.55,4.63,2.32,0,4.65-.25,6.93-.76,1.72-.39,3.51-.58,5.28-.58,6.43,0,12.5,2.56,17.1,7.2,4.58,4.64,7.07,10.73,7.01,17.16,0,.06-.01.3-.01.3-.16,7.42,3.78,14.2,9.86,17.97l-10.94.05-22.7-.09-3.44-.03H0v52.33c0,3.36.67,6.61,1.96,9.64,1.27,2.97,3.04,5.62,5.29,7.86,2.21,2.22,4.83,4,7.77,5.3,3.06,1.34,6.34,2.03,9.73,2.03h5.81c2.55,0,5.02-.45,7.36-1.32v1.32h40.19c-.78,2.04-1.17,4.21-1.17,6.46l.04,11.01v7.61c0,2.17.44,4.24,1.3,6.16.85,1.86,2.02,3.5,3.5,4.87,1.38,1.27,2.96,2.28,4.72,3.01,1.89.78,3.9,1.18,5.98,1.18h3.31c2.48,0,4.88-.5,7.13-1.49,1.06-.47,2.08-1.03,3.04-1.68,1,.7,2.07,1.31,3.21,1.81,2.25.99,4.65,1.49,7.24,1.49l15.57-.28c1.04.19,2.12.28,3.26.28l7.18-.13h32.06c.73.09,1.44.13,2.13.13h.08l7.19-.13h33c2.48,0,4.88-.5,7.13-1.49,2.13-.94,4.02-2.23,5.64-3.84,1.62-1.64,2.92-3.57,3.84-5.73.95-2.22,1.43-4.58,1.43-7.04v-20.11h-.07c-.16-1.7-.6-3.33-1.32-4.87-.79-1.67-1.84-3.18-3.14-4.47,1.14-1.39,2.1-2.92,2.85-4.58,1.11-2.47,1.68-5.16,1.68-7.97ZM41.71,282c0,1.53-.29,2.94-.87,4.24-.59,1.3-1.38,2.43-2.4,3.4-1.02.97-2.21,1.72-3.55,2.26-1.36.53-2.8.8-4.33.8h-5.81c-2.12,0-4.16-.42-6.06-1.26-1.92-.84-3.59-1.98-5-3.4-1.44-1.43-2.55-3.1-3.37-5.01-.82-1.91-1.23-3.93-1.23-6.07v-43.24h11.85v40.8c0,1.17.1,2.24.3,3.2.2.97.74,1.86,1.6,2.68.97.91,2.12,1.41,3.44,1.49,1.33.07,2.52.06,3.6-.04v-48.13h11.83v48.28ZM80.92,292.7h-12.39v-12.38l-9.17-20.24v32.62h-12.37l-.07-58.75h12.44l9.17,19.48v-19.48h12.39v58.75ZM86.38,206.91v-.33c.21-17.96-14.5-32.86-32.46-32.86-2.44,0-4.82.27-7.1.78-10.45,2.33-21.26-2.73-26.09-12.28-7.27-14.36-11.37-30.61-11.37-47.81C9.36,57.39,54.36,10.87,110.8,8.45c60.53-2.6,110.68,46.66,110.68,107.26v2.09c-3.59-7.8-9.3-12.84-15.74-12.84-10.88,0-19.7,14.39-19.7,32.16s8.82,32.16,19.7,32.15c6.44,0,12.15-5.04,15.74-12.84v20.94c0,7.24-1.67,14.41-5.05,20.83-2.66,5.06-5.86,13.34-8.26,26.44-.51,2.81-.98,5.84-1.41,9.1-.12.96-.24,1.93-.36,2.93-.28,2.42-2.31,4.25-4.74,4.25h-.8c-2.64,0-4.77-2.13-4.77-5.8v-9.66c0-.26-.02-.52-.07-.77-.36-2.38-2.42-4.3-4.88-4.21-1.25.04-2.37.56-3.19,1.39-.75.76-1.26,1.76-1.38,2.87-.01.17-.02.33-.02.5v10.91c0,1.34-.55,2.55-1.44,3.41-.85.85-2.03,1.36-3.32,1.36h-.54c-2.64,0-4.77-2.14-4.77-4.77v-10.91c0-.1,0-.19,0-.29-.15-2.5-2.23-4.48-4.76-4.48h-.55c-2.42,0-4.42,1.82-4.72,4.16-.03.2-.04.4-.04.61v11.04c0,2.63-2.14,4.76-4.77,4.76h-.55c-1.52,0-2.87-.71-3.75-1.81h0c-.64-.82-1.02-1.85-1.02-2.95v-11.04c0-.17-.01-.34-.02-.51-.26-2.39-2.28-4.26-4.74-4.26h-.56c-2.44,0-4.45,1.84-4.73,4.21-.02.19-.03.37-.03.56v11.04c0,2.63-2.14,4.76-4.77,4.76h-.55c-2.63,0-4.76-2.13-4.76-4.76v-11.04c0-.2-.01-.4-.04-.6-.29-2.35-2.3-4.17-4.73-4.17h-.55c-2.64,0-4.77,2.14-4.77,4.77v11.04c0,.4-.05.79-.15,1.17-.26,1.05-.88,1.96-1.72,2.6h0c-.8.63-1.8.99-2.9.99h-.55c-2.67,0-4.75-2.19-4.77-4.87-.02-3.52-1.16-6.79-3.1-9.47h-.01c-.31-.46-.67-.9-1.04-1.32-2.58-2.91-6.21-4.9-10.34-5.39-1.51-.19-3.12-.42-4.8-.7-6-1.03-10.44-6.3-10.3-12.38ZM201.35,116.53c1.38-.78,2.85-1.21,4.39-1.21,7.38,0,13.35,9.76,13.35,21.78s-5.97,21.77-13.35,21.77c-1.54,0-3.01-.42-4.39-1.21,5.21-2.96,8.94-11.05,8.94-20.56s-3.73-17.6-8.94-20.57ZM104.74,307.5h-6.75l-.05-2.11c-.6-.06-1.28-.06-2.03-.02s-1.41.33-1.95.85c-.5.47-.81.99-.95,1.55-.12.56-.18,1.18-.15,1.86v3.34h11.88v11.02c0,1.23-.24,2.39-.7,3.48-.47,1.09-1.1,2.05-1.91,2.86-.83.82-1.78,1.47-2.87,1.95-1.09.48-2.25.72-3.47.72h-3.31c-.89,0-1.72-.16-2.49-.48-.76-.32-1.45-.75-2.03-1.29s-1.04-1.19-1.39-1.93c-.33-.75-.5-1.56-.5-2.43v-2.15h6.79v2.06l-.04.04c.52,0,.97.01,1.35.02.37.02.72,0,1.02-.04s.59-.13.86-.26c.28-.13.55-.33.81-.59.49-.47.81-.98.95-1.54.15-.55.19-1.17.13-1.84l.05-3.33h-11.92l-.05-11.02c0-1.23.24-2.4.71-3.5.46-1.09,1.1-2.05,1.93-2.87.8-.82,1.76-1.47,2.85-1.96,1.09-.48,2.25-.72,3.48-.72h3.32c.88,0,1.7.15,2.47.46s1.45.74,2.03,1.29c.6.56,1.05,1.21,1.4,1.95.35.75.53,1.56.53,2.43v2.2ZM86.02,292.7v-58.9l17.04-.08c1.5,0,2.94.21,4.33.62.15.61.24,1.24.24,1.88.04,6.57,4.85,12.03,11.08,13.01.02.08.02.17.02.25v32.51c0,1.53-.29,2.94-.89,4.24-.58,1.3-1.38,2.44-2.4,3.41-1.02.97-2.21,1.72-3.55,2.25-1.36.54-2.8.81-4.32.81h-21.55ZM123.49,305.44h-9.36v8.67h6.79v6.27h-6.79v2.28c0,.65.04,1.26.16,1.8.13.54.42,1.04.92,1.5.56.52,1.14.78,1.75.78h6.53v6.26l-7.18.13c-1.23,0-2.39-.24-3.49-.72-1.09-.48-2.05-1.13-2.86-1.95-.82-.82-1.47-1.77-1.94-2.87-.46-1.1-.7-2.26-.7-3.48v-18.63c0-.88.17-1.7.51-2.48.34-.77.8-1.44,1.38-2.01.58-.57,1.27-1.02,2.03-1.34.78-.32,1.6-.48,2.49-.48l9.76.04v6.23ZM142.34,305.44h-9.38v8.67h6.79v6.27h-6.79v2.28c0,.65.06,1.26.19,1.8.1.54.41,1.04.91,1.5.55.52,1.15.78,1.75.78h6.53v6.26l-7.18.13c-1.24,0-2.4-.24-3.49-.72-1.1-.48-2.06-1.13-2.87-1.95-.82-.82-1.46-1.77-1.92-2.87-.47-1.1-.71-2.26-.71-3.48v-18.63c0-.88.17-1.7.5-2.48.34-.77.81-1.44,1.38-2.01.6-.57,1.27-1.02,2.04-1.34s1.6-.48,2.48-.48l9.77.04v6.23ZM138.81,292.93c-2.14,0-4.15-.42-6.07-1.26-1.91-.84-3.57-1.98-5.01-3.4-1.42-1.43-2.54-3.1-3.35-5.01-.82-1.91-1.22-3.93-1.22-6.07v-27.93c3.14-.45,5.92-2.01,7.94-4.28,1.09,1.23,2.41,2.25,3.89,3v11.79h11.84v10.93h-11.84v3.96c0,1.15.1,2.2.31,3.15.2.94.74,1.82,1.61,2.62.97.89,1.99,1.34,3.05,1.34h11.38v10.93l-12.53.23ZM166.36,333h-8.33l-5.79-12.23v12.23h-7.09v-33.83h7.09v12.71l5.79-12.71h8.33l-7.97,16.81,7.97,17.02ZM183.8,305.44h-9.38v8.67h6.79v6.27h-6.79v2.28c0,.65.06,1.26.17,1.8.12.54.43,1.04.92,1.5.56.52,1.15.78,1.76.78h6.53v6.26l-7.19.13c-1.22,0-2.38-.24-3.47-.72-1.11-.48-2.07-1.13-2.88-1.95-.82-.82-1.47-1.77-1.93-2.87-.47-1.1-.69-2.26-.69-3.48v-18.63c0-.88.15-1.7.5-2.48.34-.77.8-1.44,1.37-2.01.58-.57,1.26-1.02,2.04-1.34.77-.32,1.61-.48,2.47-.48l9.78.04v6.23ZM176.86,292.7v-25.75h-9.02v25.75h-11.84v-44.33c1.57.66,3.27,1.02,5.07,1.02h.57c2.25,0,4.35-.57,6.2-1.56v8.2h9.02v-3.75c0-1.17-.11-2.25-.31-3.24-.05-.25-.11-.49-.21-.73,1.52.61,3.17.95,4.9.95h.54c2.48,0,4.8-.69,6.78-1.89.1.68.15,1.38.15,2.09v43.24h-11.85ZM198.23,333l-3.82-14.77h-1.18v14.77h-6.79v-33.83h12.3c.89,0,1.7.15,2.49.46.76.31,1.44.74,2.03,1.29.58.56,1.04,1.21,1.39,1.95.33.75.5,1.56.5,2.43v3.9c0,1.58-.37,3.01-1.08,4.3-.72,1.29-1.67,2.34-2.86,3.16l4.28,16.34h-7.26ZM225.83,307.5h-6.75l-.05-2.11c-.61-.06-1.29-.06-2.04-.02s-1.4.33-1.95.85c-.5.47-.81.99-.94,1.55-.12.56-.18,1.18-.14,1.86v3.34h11.87v11.02c0,1.23-.24,2.39-.69,3.48-.47,1.09-1.12,2.05-1.93,2.86-.81.82-1.77,1.47-2.86,1.95-1.1.48-2.25.72-3.47.72h-3.32c-.87,0-1.71-.16-2.48-.48-.78-.32-1.44-.75-2.04-1.29-.58-.54-1.04-1.19-1.37-1.93-.35-.75-.5-1.56-.5-2.43v-2.15h6.79v2.06l-.04.04c.52,0,.97.01,1.33.02.39.02.73,0,1.02-.04.31-.04.61-.13.88-.26.27-.13.54-.33.81-.59.48-.47.8-.98.95-1.54.14-.55.18-1.17.12-1.84l.05-3.33h-11.91l-.06-11.02c0-1.23.24-2.4.7-3.5.47-1.09,1.11-2.05,1.93-2.87.81-.82,1.77-1.47,2.86-1.96,1.09-.48,2.25-.72,3.48-.72h3.33c.86,0,1.69.15,2.47.46.77.31,1.44.74,2.03,1.29.58.56,1.05,1.21,1.39,1.95.36.75.53,1.56.53,2.43v2.2ZM225.83,281.99c0,1.53-.3,2.94-.87,4.24-.6,1.3-1.4,2.44-2.42,3.41-1.02.97-2.2,1.72-3.55,2.25-1.34.54-2.78.81-4.32.81h-21.53v-45.99c2.13,1.62,4.78,2.55,7.71,2.55h.82c1.13,0,2.25-.15,3.31-.43v32.94h9v-29.87c0-1.17-.09-2.24-.29-3.21-.21-.96-.75-1.86-1.62-2.67-.31-.3-.63-.55-1-.75,1.95-2.01,3.28-4.66,3.64-7.64.11-1.06.25-2.09.37-3.1.4.13.78.28,1.16.45,1.92.84,3.58,1.98,5,3.41,1.43,1.42,2.55,3.09,3.36,5.01.82,1.91,1.23,3.94,1.23,6.08v32.51Z"/>
      <path class="cls-1" d="M193.23,312.01c.63.06,1.33.07,2.09.04.76-.03,1.42-.3,1.98-.83.49-.47.8-.98.93-1.53.1-.56.17-1.17.17-1.84v-2.41h-5.17v6.57Z"/>
      <path class="cls-1" d="M104.98,246.02c-.98-.92-2.12-1.41-3.45-1.49-1.32-.08-2.55-.06-3.67.04v37.2h9.03v-29.87c0-1.17-.11-2.24-.32-3.21-.19-.96-.73-1.86-1.59-2.67Z"/>
      <path class="cls-1" d="M129.96,173.67c18.6-.92,33.73-16.02,34.69-34.62,1.12-21.73-16.74-39.6-38.47-38.49-18.59.94-33.7,16.05-34.64,34.65-1.1,21.7,16.71,39.54,38.42,38.46ZM121,109.77c2.27-.6,4.65-.91,7.09-.91,15.58,0,28.26,12.67,28.26,28.26s-12.68,28.25-28.26,28.25c-2.44,0-4.82-.31-7.09-.91,12.16-3.15,21.15-14.22,21.15-27.34s-8.99-24.2-21.15-27.35Z"/>
      <path class="cls-1" d="M166.64,188.05h2.27c.41,0,.82-.08,1.21-.24l4.6-1.91c.12-.05.23-.09.35-.13.2-.07.41-.14.62-.19,1.79-.47,3.71-.27,5.39.59l2.94,1.52c.16.09.34.16.52.22.3.09.62.14.94.14.89,0,1.69-.37,2.26-.95.1-.1.2-.22.29-.34.4-.53.63-1.19.63-1.87,0-.13,0-.27-.03-.4-.02-.13-.04-.26-.08-.38l-6.64-26.67c-.22-.85-.54-1.67-.96-2.44-.21-.38-.45-.75-.7-1.1-.13-.18-.26-.35-.41-.52-.13-.16-.28-.33-.43-.49-.05-.05-.1-.09-.15-.14-.34-.32-.73-.57-1.14-.75-.47-.19-.98-.29-1.48-.29-.39,0-.78.06-1.15.17-.56.18-1.09.48-1.53.92-.05.04-.1.09-.15.15l-.33.35c-.48.53-.92,1.09-1.31,1.68-.16.24-.31.48-.46.72-.07.13-.14.25-.21.37-.14.25-.27.5-.39.76-.35.74-.64,1.52-.85,2.31-.01.03-.02.06-.03.09l-6.66,24.82c-.54,2.01.99,4,3.07,4ZM175.06,160.55c.17-.59.35-1.1.58-1.57.09-.19.17-.35.24-.48l.17-.3c.07-.12.17-.27.29-.45.07-.1.15-.21.23-.32.21.39.37.8.48,1.23l5.67,22.75c-1.4-.62-2.9-.98-4.43-1.07l-4.11-16.51.88-3.28Z"/>
    </g>
  </g>
</svg>