<?xml version="1.0" encoding="UTF-8"?>
<svg id="Layer_2" data-name="Layer 2" xmlns="http://www.w3.org/2000/svg" viewBox="0 0 232.91 249.39">
  <defs>
    <style>
      .cls-1 {
        fill: #000;
      }

      .cls-1, .cls-2, .cls-3 {
        stroke-width: 0px;
      }

      .cls-2 {
        fill: #90c;
      }

      .cls-3 {
        fill: #fff;
      }
    </style>
  </defs>
  <g id="Layer_1-2" data-name="Layer 1">
    <g>
      <path class="cls-1" d="M160.07,249.39c-3.9,0-7.4-1.71-9.81-4.42-2.4,2.71-5.91,4.42-9.81,4.42h-.55c-3.9,0-7.4-1.71-9.81-4.42-2.4,2.71-5.91,4.42-9.81,4.42h-.55c-7.19,0-13.07-5.91-13.12-13.17-.01-1.95-.74-3.83-2.04-5.29-1.31-1.47-3.12-2.41-5.1-2.65-1.68-.2-3.44-.46-5.2-.76-10.06-1.73-17.47-10.66-17.25-20.79,0,0,0-.24,0-.3.06-6.42-2.43-12.51-7.01-17.15-4.59-4.65-10.66-7.21-17.1-7.21-1.78,0-3.56.2-5.28.58-2.27.51-4.6.76-6.92.76-5.83,0-11.56-1.6-16.56-4.63-5.09-3.08-9.2-7.51-11.87-12.79C4.13,149.91,0,132.55,0,114.4c0-29.69,11.32-57.83,31.88-79.24C52.38,13.82,79.92,1.37,109.43.11c1.64-.07,3.3-.11,4.94-.11,15.42,0,30.41,3.08,44.54,9.15,13.62,5.85,25.86,14.22,36.38,24.87,10.51,10.64,18.76,23.01,24.53,36.77,5.98,14.26,9.01,29.37,9.01,44.92v.1c2.68,6.36,4.09,13.68,4.09,21.32s-1.41,14.96-4.09,21.32v18.93c0,8.7-2.08,17.25-6.01,24.72-2.93,5.57-6.89,16.26-9.12,35.54-.78,6.64-6.38,11.64-13.04,11.64h-.81c-3.8,0-7.13-1.57-9.48-4.18-2.4,2.57-5.81,4.18-9.59,4.18h-.54c-3.87,0-7.35-1.68-9.75-4.35-2.41,2.75-5.94,4.48-9.87,4.48h-.55Z"/>
      <g>
        <g>
          <path class="cls-3" d="M204.73,104.95c6.43,0,12.15,5.04,15.74,12.84v-2.09c0-60.59-50.16-109.86-110.69-107.26C53.35,10.87,8.35,57.38,8.35,114.4c0,17.2,4.1,33.45,11.37,47.81,4.83,9.55,15.64,14.61,26.09,12.28,2.28-.51,4.66-.78,7.1-.78,17.96,0,32.67,14.9,32.46,32.85,0,.11,0,.22,0,.34-.13,6.08,4.31,11.34,10.3,12.37,1.68.29,3.29.52,4.8.7,4.13.49,7.75,2.48,10.34,5.39,2.57,2.89,4.13,6.67,4.15,10.79.02,2.68,2.09,4.87,4.77,4.87h.55c2.63,0,4.77-2.13,4.77-4.77v-11.04c0-2.63,2.13-4.77,4.77-4.77h.55c2.63,0,4.77,2.13,4.77,4.77v11.04c0,2.63,2.13,4.77,4.77,4.77h.55c2.63,0,4.77-2.13,4.77-4.77v-11.04c0-2.63,2.13-4.77,4.77-4.77h.55c2.63,0,4.77,2.13,4.77,4.77v11.04c0,2.63,2.13,4.77,4.77,4.77h.55c2.63,0,4.77-2.13,4.77-4.77v-11.04c0-2.63,2.13-4.77,4.77-4.77h.55c2.63,0,4.77,2.13,4.77,4.77v10.91c0,2.63,2.13,4.77,4.77,4.77h.54c2.63,0,4.77-2.13,4.77-4.77v-10.91c0-1.31.53-2.5,1.39-3.37.82-.82,1.94-1.34,3.19-1.39,2.72-.1,4.95,2.26,4.95,4.98v9.66c0,3.66,2.13,5.8,4.77,5.8h.81c2.43,0,4.45-1.83,4.74-4.25,2.35-20.29,6.63-32.01,10.03-38.47,3.38-6.42,5.05-13.59,5.05-20.83v-20.94c-3.59,7.8-9.31,12.84-15.74,12.84-10.88,0-19.7-14.39-19.7-32.16s8.82-32.16,19.7-32.16ZM128.95,173.67c-21.71,1.08-39.53-16.76-38.42-38.47.94-18.59,16.05-33.7,34.65-34.65,21.73-1.11,39.59,16.76,38.47,38.49-.96,18.6-16.09,33.7-34.69,34.63ZM187.65,184.88c0,.69-.23,1.34-.62,1.87-.09.12-.19.24-.3.35-.57.58-1.37.95-2.26.95-.32,0-.63-.05-.94-.14-.18-.06-.36-.13-.52-.22l-2.94-1.52c-1.68-.86-3.59-1.06-5.39-.59-.21.05-.41.12-.62.19-.12.04-.23.08-.35.13l-4.6,1.91c-.38.16-.8.24-1.21.24h-2.26c-2.09,0-3.61-1.98-3.07-4l6.65-24.81s.02-.06.03-.09c.22-.8.51-1.57.86-2.31.12-.26.25-.51.39-.76.07-.12.14-.25.21-.37.14-.24.29-.48.45-.72.39-.59.84-1.15,1.32-1.68l.33-.36c.05-.05.1-.1.15-.15.44-.43.97-.74,1.53-.91.37-.12.76-.17,1.15-.17.5,0,1.01.1,1.48.29h0c.41.18.8.42,1.14.74.05.05.1.09.14.14.15.16.3.32.44.49.14.17.28.34.4.51.26.35.49.72.7,1.11.42.76.74,1.58.96,2.44l6.64,26.67c.03.13.06.26.08.39s.03.26.03.39Z"/>
          <path class="cls-3" d="M218.08,137.09c0,12.03-5.97,21.77-13.35,21.77-1.54,0-3.02-.42-4.39-1.21,5.21-2.96,8.94-11.05,8.94-20.56,0-9.51-3.73-17.59-8.94-20.56,1.38-.79,2.85-1.21,4.39-1.21,7.38,0,13.35,9.75,13.35,21.77Z"/>
          <path class="cls-2" d="M155.34,137.11c0,15.58-12.67,28.25-28.25,28.25-2.45,0-4.83-.31-7.1-.91,12.16-3.15,21.16-14.22,21.16-27.35s-9-24.2-21.16-27.35c2.27-.59,4.65-.91,7.1-.91,15.58,0,28.25,12.67,28.25,28.25Z"/>
        </g>
        <path class="cls-3" d="M181.71,181.4c-1.4-.62-2.91-.98-4.43-1.06l-4.12-16.51.88-3.28c.17-.59.35-1.1.58-1.57.09-.19.17-.35.24-.48l.17-.3c.07-.12.17-.27.29-.45.07-.11.15-.22.23-.33.21.39.38.8.48,1.23l5.67,22.75Z"/>
      </g>
    </g>
  </g>
</svg>